<svg version="1.1" viewBox="0.0 0.0 600.0 371.0" fill="none" stroke="none" stroke-linecap="square" stroke-miterlimit="10" width="600" height="371" xmlns:xlink="http://www.w3.org/1999/xlink" xmlns="http://www.w3.org/2000/svg"><path fill="#ffffff" d="M0 0L600.0 0L600.0 371.0L0 371.0L0 0Z" fill-rule="nonzero"/><path stroke="#333333" stroke-width="1.0" stroke-linecap="butt" d="M66.5 332.5L581.5 332.5" fill-rule="nonzero"/><path stroke="#cccccc" stroke-width="1.0" stroke-linecap="butt" d="M66.5 271.5L581.5 271.5" fill-rule="nonzero"/><path stroke="#cccccc" stroke-width="1.0" stroke-linecap="butt" d="M66.5 210.5L581.5 210.5" fill-rule="nonzero"/><path stroke="#cccccc" stroke-width="1.0" stroke-linecap="butt" d="M66.5 149.5L581.5 149.5" fill-rule="nonzero"/><path stroke="#cccccc" stroke-width="1.0" stroke-linecap="butt" d="M66.5 88.5L581.5 88.5" fill-rule="nonzero"/><clipPath id="id_0"><path d="M66.55 88.28333L581.45 88.28333L581.45 332.45L66.55 332.45L66.55 88.28333Z" clip-rule="nonzero"/></clipPath><path stroke="#5891ad" stroke-width="2.0" stroke-linecap="butt" clip-path="url(#id_0)" d="M95.155556 259.86475L152.36667 258.8307L209.57777 259.57358L266.78888 250.75732L324.0 251.09612L381.21112 248.4878L438.4222 251.10771L495.63333 250.82387L552.8444 250.00285" fill-rule="nonzero"/><path stroke="#004561" stroke-width="2.0" stroke-linecap="butt" clip-path="url(#id_0)" d="M95.155556 263.9478L152.36667 266.70325L209.57777 263.12863L266.78888 247.04965L324.0 247.75468L381.21112 246.18103L438.4222 250.58519L495.63333 249.92899L552.8444 249.27158" fill-rule="nonzero"/><path stroke="#ff6f31" stroke-width="2.0" stroke-linecap="butt" clip-path="url(#id_0)" d="M95.155556 287.7901L152.36667 287.02768L209.57777 286.99106L266.78888 285.34476L324.0 285.9631L381.21112 290.22443L438.4222 289.48154L495.63333 289.83133L552.8444 290.6615" fill-rule="nonzero"/><path stroke="#38761d" stroke-width="2.0" stroke-linecap="butt" clip-path="url(#id_0)" d="M95.155556 139.42526L152.36667 141.7389L209.57777 140.75194L266.78888 113.6201L324.0 106.3805L381.21112 106.23329L438.4222 119.843185L495.63333 109.85247L552.8444 103.97531" fill-rule="nonzero"/><path fill="#000000" fill-opacity="0.0" clip-path="url(#id_0)" d="M98.155556 259.86475C98.155556 261.5216 96.81241 262.86475 95.155556 262.86475C93.4987 262.86475 92.155556 261.5216 92.155556 259.86475C92.155556 258.2079 93.4987 256.86475 95.155556 256.86475C96.81241 256.86475 98.155556 258.2079 98.155556 259.86475Z" fill-rule="nonzero"/><path fill="#000000" fill-opacity="0.0" clip-path="url(#id_0)" d="M155.36667 258.8307C155.36667 260.48755 154.02351 261.8307 152.36667 261.8307C150.70981 261.8307 149.36667 260.48755 149.36667 258.8307C149.36667 257.17386 150.70981 255.8307 152.36667 255.8307C154.02351 255.8307 155.36667 257.17386 155.36667 258.8307Z" fill-rule="nonzero"/><path fill="#000000" fill-opacity="0.0" clip-path="url(#id_0)" d="M212.57777 259.57358C212.57777 261.23044 211.23463 262.57358 209.57777 262.57358C207.92093 262.57358 206.57777 261.23044 206.57777 259.57358C206.57777 257.91672 207.92093 256.57358 209.57777 256.57358C211.23463 256.57358 212.57777 257.91672 212.57777 259.57358Z" fill-rule="nonzero"/><path fill="#000000" fill-opacity="0.0" clip-path="url(#id_0)" d="M269.78888 250.75732C269.78888 252.41418 268.44574 253.75732 266.78888 253.75732C265.13205 253.75732 263.78888 252.41418 263.78888 250.75732C263.78888 249.10048 265.13205 247.75732 266.78888 247.75732C268.44574 247.75732 269.78888 249.10048 269.78888 250.75732Z" fill-rule="nonzero"/><path fill="#000000" fill-opacity="0.0" clip-path="url(#id_0)" d="M327.0 251.09612C327.0 252.75296 325.65686 254.09612 324.0 254.09612C322.34314 254.09612 321.0 252.75296 321.0 251.09612C321.0 249.43925 322.34314 248.09612 324.0 248.09612C325.65686 248.09612 327.0 249.43925 327.0 251.09612Z" fill-rule="nonzero"/><path fill="#000000" fill-opacity="0.0" clip-path="url(#id_0)" d="M384.21112 248.4878C384.21112 250.14465 382.86795 251.4878 381.21112 251.4878C379.55426 251.4878 378.21112 250.14465 378.21112 248.4878C378.21112 246.83095 379.55426 245.4878 381.21112 245.4878C382.86795 245.4878 384.21112 246.83095 384.21112 248.4878Z" fill-rule="nonzero"/><path fill="#000000" fill-opacity="0.0" clip-path="url(#id_0)" d="M441.4222 251.10771C441.4222 252.76456 440.07907 254.10771 438.4222 254.10771C436.76538 254.10771 435.4222 252.76456 435.4222 251.10771C435.4222 249.45085 436.76538 248.10771 438.4222 248.10771C440.07907 248.10771 441.4222 249.45085 441.4222 251.10771Z" fill-rule="nonzero"/><path fill="#000000" fill-opacity="0.0" clip-path="url(#id_0)" d="M498.63333 250.82387C498.63333 252.48071 497.2902 253.82387 495.63333 253.82387C493.97647 253.82387 492.63333 252.48071 492.63333 250.82387C492.63333 249.167 493.97647 247.82387 495.63333 247.82387C497.2902 247.82387 498.63333 249.167 498.63333 250.82387Z" fill-rule="nonzero"/><path fill="#000000" fill-opacity="0.0" clip-path="url(#id_0)" d="M555.8444 250.00285C555.8444 251.65971 554.5013 253.00285 552.8444 253.00285C551.18756 253.00285 549.8444 251.65971 549.8444 250.00285C549.8444 248.346 551.18756 247.00285 552.8444 247.00285C554.5013 247.00285 555.8444 248.346 555.8444 250.00285Z" fill-rule="nonzero"/><path fill="#000000" fill-opacity="0.0" clip-path="url(#id_0)" d="M98.155556 263.9478C98.155556 265.60468 96.81241 266.9478 95.155556 266.9478C93.4987 266.9478 92.155556 265.60468 92.155556 263.9478C92.155556 262.29095 93.4987 260.9478 95.155556 260.9478C96.81241 260.9478 98.155556 262.29095 98.155556 263.9478Z" fill-rule="nonzero"/><path fill="#000000" fill-opacity="0.0" clip-path="url(#id_0)" d="M155.36667 266.70325C155.36667 268.3601 154.02351 269.70325 152.36667 269.70325C150.70981 269.70325 149.36667 268.3601 149.36667 266.70325C149.36667 265.0464 150.70981 263.70325 152.36667 263.70325C154.02351 263.70325 155.36667 265.0464 155.36667 266.70325Z" fill-rule="nonzero"/><path fill="#000000" fill-opacity="0.0" clip-path="url(#id_0)" d="M212.57777 263.12863C212.57777 264.7855 211.23463 266.12863 209.57777 266.12863C207.92093 266.12863 206.57777 264.7855 206.57777 263.12863C206.57777 261.4718 207.92093 260.12863 209.57777 260.12863C211.23463 260.12863 212.57777 261.4718 212.57777 263.12863Z" fill-rule="nonzero"/><path fill="#000000" fill-opacity="0.0" clip-path="url(#id_0)" d="M269.78888 247.04965C269.78888 248.70651 268.44574 250.04965 266.78888 250.04965C265.13205 250.04965 263.78888 248.70651 263.78888 247.04965C263.78888 245.3928 265.13205 244.04965 266.78888 244.04965C268.44574 244.04965 269.78888 245.3928 269.78888 247.04965Z" fill-rule="nonzero"/><path fill="#000000" fill-opacity="0.0" clip-path="url(#id_0)" d="M327.0 247.75468C327.0 249.41154 325.65686 250.75468 324.0 250.75468C322.34314 250.75468 321.0 249.41154 321.0 247.75468C321.0 246.09784 322.34314 244.75468 324.0 244.75468C325.65686 244.75468 327.0 246.09784 327.0 247.75468Z" fill-rule="nonzero"/><path fill="#000000" fill-opacity="0.0" clip-path="url(#id_0)" d="M384.21112 246.18103C384.21112 247.83789 382.86795 249.18103 381.21112 249.18103C379.55426 249.18103 378.21112 247.83789 378.21112 246.18103C378.21112 244.52419 379.55426 243.18103 381.21112 243.18103C382.86795 243.18103 384.21112 244.52419 384.21112 246.18103Z" fill-rule="nonzero"/><path fill="#000000" fill-opacity="0.0" clip-path="url(#id_0)" d="M441.4222 250.58519C441.4222 252.24205 440.07907 253.58519 438.4222 253.58519C436.76538 253.58519 435.4222 252.24205 435.4222 250.58519C435.4222 248.92833 436.76538 247.58519 438.4222 247.58519C440.07907 247.58519 441.4222 248.92833 441.4222 250.58519Z" fill-rule="nonzero"/><path fill="#000000" fill-opacity="0.0" clip-path="url(#id_0)" d="M498.63333 249.92899C498.63333 251.58585 497.2902 252.92899 495.63333 252.92899C493.97647 252.92899 492.63333 251.58585 492.63333 249.92899C492.63333 248.27214 493.97647 246.92899 495.63333 246.92899C497.2902 246.92899 498.63333 248.27214 498.63333 249.92899Z" fill-rule="nonzero"/><path fill="#000000" fill-opacity="0.0" clip-path="url(#id_0)" d="M555.8444 249.27158C555.8444 250.92842 554.5013 252.27158 552.8444 252.27158C551.18756 252.27158 549.8444 250.92842 549.8444 249.27158C549.8444 247.61472 551.18756 246.27158 552.8444 246.27158C554.5013 246.27158 555.8444 247.61472 555.8444 249.27158Z" fill-rule="nonzero"/><path fill="#000000" fill-opacity="0.0" clip-path="url(#id_0)" d="M98.155556 287.7901C98.155556 289.44693 96.81241 290.7901 95.155556 290.7901C93.4987 290.7901 92.155556 289.44693 92.155556 287.7901C92.155556 286.13324 93.4987 284.7901 95.155556 284.7901C96.81241 284.7901 98.155556 286.13324 98.155556 287.7901Z" fill-rule="nonzero"/><path fill="#000000" fill-opacity="0.0" clip-path="url(#id_0)" d="M155.36667 287.02768C155.36667 288.68454 154.02351 290.02768 152.36667 290.02768C150.70981 290.02768 149.36667 288.68454 149.36667 287.02768C149.36667 285.37082 150.70981 284.02768 152.36667 284.02768C154.02351 284.02768 155.36667 285.37082 155.36667 287.02768Z" fill-rule="nonzero"/><path fill="#000000" fill-opacity="0.0" clip-path="url(#id_0)" d="M212.57777 286.99106C212.57777 288.64792 211.23463 289.99106 209.57777 289.99106C207.92093 289.99106 206.57777 288.64792 206.57777 286.99106C206.57777 285.3342 207.92093 283.99106 209.57777 283.99106C211.23463 283.99106 212.57777 285.3342 212.57777 286.99106Z" fill-rule="nonzero"/><path fill="#000000" fill-opacity="0.0" clip-path="url(#id_0)" d="M269.78888 285.34476C269.78888 287.00162 268.44574 288.34476 266.78888 288.34476C265.13205 288.34476 263.78888 287.00162 263.78888 285.34476C263.78888 283.6879 265.13205 282.34476 266.78888 282.34476C268.44574 282.34476 269.78888 283.6879 269.78888 285.34476Z" fill-rule="nonzero"/><path fill="#000000" fill-opacity="0.0" clip-path="url(#id_0)" d="M327.0 285.9631C327.0 287.61996 325.65686 288.9631 324.0 288.9631C322.34314 288.9631 321.0 287.61996 321.0 285.9631C321.0 284.30624 322.34314 282.9631 324.0 282.9631C325.65686 282.9631 327.0 284.30624 327.0 285.9631Z" fill-rule="nonzero"/><path fill="#000000" fill-opacity="0.0" clip-path="url(#id_0)" d="M384.21112 290.22443C384.21112 291.8813 382.86795 293.22443 381.21112 293.22443C379.55426 293.22443 378.21112 291.8813 378.21112 290.22443C378.21112 288.56757 379.55426 287.22443 381.21112 287.22443C382.86795 287.22443 384.21112 288.56757 384.21112 290.22443Z" fill-rule="nonzero"/><path fill="#000000" fill-opacity="0.0" clip-path="url(#id_0)" d="M441.4222 289.48154C441.4222 291.1384 440.07907 292.48154 438.4222 292.48154C436.76538 292.48154 435.4222 291.1384 435.4222 289.48154C435.4222 287.8247 436.76538 286.48154 438.4222 286.48154C440.07907 286.48154 441.4222 287.8247 441.4222 289.48154Z" fill-rule="nonzero"/><path fill="#000000" fill-opacity="0.0" clip-path="url(#id_0)" d="M498.63333 289.83133C498.63333 291.48816 497.2902 292.83133 495.63333 292.83133C493.97647 292.83133 492.63333 291.48816 492.63333 289.83133C492.63333 288.17447 493.97647 286.83133 495.63333 286.83133C497.2902 286.83133 498.63333 288.17447 498.63333 289.83133Z" fill-rule="nonzero"/><path fill="#000000" fill-opacity="0.0" clip-path="url(#id_0)" d="M555.8444 290.6615C555.8444 292.31833 554.5013 293.6615 552.8444 293.6615C551.18756 293.6615 549.8444 292.31833 549.8444 290.6615C549.8444 289.00464 551.18756 287.6615 552.8444 287.6615C554.5013 287.6615 555.8444 289.00464 555.8444 290.6615Z" fill-rule="nonzero"/><path fill="#000000" fill-opacity="0.0" clip-path="url(#id_0)" d="M98.155556 139.42526C98.155556 141.08212 96.81241 142.42526 95.155556 142.42526C93.4987 142.42526 92.155556 141.08212 92.155556 139.42526C92.155556 137.7684 93.4987 136.42526 95.155556 136.42526C96.81241 136.42526 98.155556 137.7684 98.155556 139.42526Z" fill-rule="nonzero"/><path fill="#000000" fill-opacity="0.0" clip-path="url(#id_0)" d="M155.36667 141.7389C155.36667 143.39577 154.02351 144.7389 152.36667 144.7389C150.70981 144.7389 149.36667 143.39577 149.36667 141.7389C149.36667 140.08205 150.70981 138.7389 152.36667 138.7389C154.02351 138.7389 155.36667 140.08205 155.36667 141.7389Z" fill-rule="nonzero"/><path fill="#000000" fill-opacity="0.0" clip-path="url(#id_0)" d="M212.57777 140.75194C212.57777 142.4088 211.23463 143.75194 209.57777 143.75194C207.92093 143.75194 206.57777 142.4088 206.57777 140.75194C206.57777 139.0951 207.92093 137.75194 209.57777 137.75194C211.23463 137.75194 212.57777 139.0951 212.57777 140.75194Z" fill-rule="nonzero"/><path fill="#000000" fill-opacity="0.0" clip-path="url(#id_0)" d="M269.78888 113.6201C269.78888 115.276955 268.44574 116.6201 266.78888 116.6201C265.13205 116.6201 263.78888 115.276955 263.78888 113.6201C263.78888 111.96324 265.13205 110.6201 266.78888 110.6201C268.44574 110.6201 269.78888 111.96324 269.78888 113.6201Z" fill-rule="nonzero"/><path fill="#000000" fill-opacity="0.0" clip-path="url(#id_0)" d="M327.0 106.3805C327.0 108.03735 325.65686 109.3805 324.0 109.3805C322.34314 109.3805 321.0 108.03735 321.0 106.3805C321.0 104.72365 322.34314 103.3805 324.0 103.3805C325.65686 103.3805 327.0 104.72365 327.0 106.3805Z" fill-rule="nonzero"/><path fill="#000000" fill-opacity="0.0" clip-path="url(#id_0)" d="M384.21112 106.23329C384.21112 107.89015 382.86795 109.23329 381.21112 109.23329C379.55426 109.23329 378.21112 107.89015 378.21112 106.23329C378.21112 104.57644 379.55426 103.23329 381.21112 103.23329C382.86795 103.23329 384.21112 104.57644 384.21112 106.23329Z" fill-rule="nonzero"/><path fill="#000000" fill-opacity="0.0" clip-path="url(#id_0)" d="M441.4222 119.843185C441.4222 121.50004 440.07907 122.843185 438.4222 122.843185C436.76538 122.843185 435.4222 121.50004 435.4222 119.843185C435.4222 118.18633 436.76538 116.843185 438.4222 116.843185C440.07907 116.843185 441.4222 118.18633 441.4222 119.843185Z" fill-rule="nonzero"/><path fill="#000000" fill-opacity="0.0" clip-path="url(#id_0)" d="M498.63333 109.85247C498.63333 111.50932 497.2902 112.85247 495.63333 112.85247C493.97647 112.85247 492.63333 111.50932 492.63333 109.85247C492.63333 108.19561 493.97647 106.85247 495.63333 106.85247C497.2902 106.85247 498.63333 108.19561 498.63333 109.85247Z" fill-rule="nonzero"/><path fill="#000000" fill-opacity="0.0" clip-path="url(#id_0)" d="M555.8444 103.97531C555.8444 105.632164 554.5013 106.97531 552.8444 106.97531C551.18756 106.97531 549.8444 105.632164 549.8444 103.97531C549.8444 102.31845 551.18756 100.97531 552.8444 100.97531C554.5013 100.97531 555.8444 102.31845 555.8444 103.97531Z" fill-rule="nonzero"/><path fill="#000000" d="M54.05 332.21564Q54.05 330.6844 54.3625 329.7625Q54.675 328.825 55.284374 328.325Q55.909374 327.825 56.846874 327.825Q57.534374 327.825 58.05 328.10626Q58.58125 328.3875 58.925 328.91876Q59.26875 329.4344 59.45625 330.1844Q59.64375 330.9344 59.64375 332.21564Q59.64375 333.73126 59.33125 334.65314Q59.034374 335.575 58.409374 336.09064Q57.8 336.59064 56.846874 336.59064Q55.6125 336.59064 54.89375 335.7Q54.05 334.6375 54.05 332.21564ZM55.128124 332.21564Q55.128124 334.325 55.628124 335.02814Q56.128124 335.73126 56.846874 335.73126Q57.58125 335.73126 58.065624 335.02814Q58.565624 334.325 58.565624 332.21564Q58.565624 330.09064 58.065624 329.40314Q57.58125 328.7 56.83125 328.7Q56.1125 328.7 55.675 329.3094Q55.128124 330.09064 55.128124 332.21564Z" fill-rule="nonzero"/><path fill="#000000" d="M23.01875 275.40833L21.971874 275.40833L21.971874 268.68958Q21.58125 269.04895 20.95625 269.42395Q20.346874 269.78333 19.8625 269.9552L19.8625 268.93958Q20.7375 268.5177 21.39375 267.93958Q22.065624 267.34583 22.346874 266.78333L23.01875 266.78333L23.01875 275.40833ZM26.05 271.17395Q26.05 269.6427 26.3625 268.72083Q26.675 267.78333 27.284374 267.28333Q27.909374 266.78333 28.846874 266.78333Q29.534374 266.78333 30.05 267.06458Q30.58125 267.34583 30.925 267.87708Q31.26875 268.3927 31.45625 269.1427Q31.64375 269.8927 31.64375 271.17395Q31.64375 272.68958 31.33125 273.61145Q31.034374 274.53333 30.409374 275.04895Q29.8 275.54895 28.846874 275.54895Q27.6125 275.54895 26.89375 274.65833Q26.05 273.59583 26.05 271.17395ZM27.128124 271.17395Q27.128124 273.28333 27.628124 273.98645Q28.128124 274.68958 28.846874 274.68958Q29.58125 274.68958 30.065624 273.98645Q30.565624 273.28333 30.565624 271.17395Q30.565624 269.04895 30.065624 268.36145Q29.58125 267.65833 28.83125 267.65833Q28.1125 267.65833 27.675 268.2677Q27.128124 269.04895 27.128124 271.17395ZM33.05 271.17395Q33.05 269.6427 33.3625 268.72083Q33.675 267.78333 34.284374 267.28333Q34.909374 266.78333 35.846874 266.78333Q36.534374 266.78333 37.05 267.06458Q37.58125 267.34583 37.925 267.87708Q38.26875 268.3927 38.45625 269.1427Q38.64375 269.8927 38.64375 271.17395Q38.64375 272.68958 38.33125 273.61145Q38.034374 274.53333 37.409374 275.04895Q36.8 275.54895 35.846874 275.54895Q34.6125 275.54895 33.89375 274.65833Q33.05 273.59583 33.05 271.17395ZM34.128124 271.17395Q34.128124 273.28333 34.628124 273.98645Q35.128124 274.68958 35.846874 274.68958Q36.58125 274.68958 37.065624 273.98645Q37.565624 273.28333 37.565624 271.17395Q37.565624 269.04895 37.065624 268.36145Q36.58125 267.65833 35.83125 267.65833Q35.1125 267.65833 34.675 268.2677Q34.128124 269.04895 34.128124 271.17395ZM40.05 271.17395Q40.05 269.6427 40.3625 268.72083Q40.675 267.78333 41.284374 267.28333Q41.909374 266.78333 42.846874 266.78333Q43.534374 266.78333 44.05 267.06458Q44.58125 267.34583 44.925 267.87708Q45.26875 268.3927 45.45625 269.1427Q45.64375 269.8927 45.64375 271.17395Q45.64375 272.68958 45.33125 273.61145Q45.034374 274.53333 44.409374 275.04895Q43.8 275.54895 42.846874 275.54895Q41.6125 275.54895 40.89375 274.65833Q40.05 273.59583 40.05 271.17395ZM41.128124 271.17395Q41.128124 273.28333 41.628124 273.98645Q42.128124 274.68958 42.846874 274.68958Q43.58125 274.68958 44.065624 273.98645Q44.565624 273.28333 44.565624 271.17395Q44.565624 269.04895 44.065624 268.36145Q43.58125 267.65833 42.83125 267.65833Q42.1125 267.65833 41.675 268.2677Q41.128124 269.04895 41.128124 271.17395ZM47.05 271.17395Q47.05 269.6427 47.3625 268.72083Q47.675 267.78333 48.284374 267.28333Q48.909374 266.78333 49.846874 266.78333Q50.534374 266.78333 51.05 267.06458Q51.58125 267.34583 51.925 267.87708Q52.26875 268.3927 52.45625 269.1427Q52.64375 269.8927 52.64375 271.17395Q52.64375 272.68958 52.33125 273.61145Q52.034374 274.53333 51.409374 275.04895Q50.8 275.54895 49.846874 275.54895Q48.6125 275.54895 47.89375 274.65833Q47.05 273.59583 47.05 271.17395ZM48.128124 271.17395Q48.128124 273.28333 48.628124 273.98645Q49.128124 274.68958 49.846874 274.68958Q50.58125 274.68958 51.065624 273.98645Q51.565624 273.28333 51.565624 271.17395Q51.565624 269.04895 51.065624 268.36145Q50.58125 267.65833 49.83125 267.65833Q49.1125 267.65833 48.675 268.2677Q48.128124 269.04895 48.128124 271.17395ZM54.05 271.17395Q54.05 269.6427 54.3625 268.72083Q54.675 267.78333 55.284374 267.28333Q55.909374 266.78333 56.846874 266.78333Q57.534374 266.78333 58.05 267.06458Q58.58125 267.34583 58.925 267.87708Q59.26875 268.3927 59.45625 269.1427Q59.64375 269.8927 59.64375 271.17395Q59.64375 272.68958 59.33125 273.61145Q59.034374 274.53333 58.409374 275.04895Q57.8 275.54895 56.846874 275.54895Q55.6125 275.54895 54.89375 274.65833Q54.05 273.59583 54.05 271.17395ZM55.128124 271.17395Q55.128124 273.28333 55.628124 273.98645Q56.128124 274.68958 56.846874 274.68958Q57.58125 274.68958 58.065624 273.98645Q58.565624 273.28333 58.565624 271.17395Q58.565624 269.04895 58.065624 268.36145Q57.58125 267.65833 56.83125 267.65833Q56.1125 267.65833 55.675 268.2677Q55.128124 269.04895 55.128124 271.17395Z" fill-rule="nonzero"/><path fill="#000000" d="M24.596874 213.35104L24.596874 214.36667L18.909374 214.36667Q18.909374 213.99167 19.034374 213.6323Q19.253124 213.05417 19.721874 212.49167Q20.20625 211.92917 21.1125 211.1948Q22.51875 210.03854 23.003124 209.36667Q23.503124 208.6948 23.503124 208.10104Q23.503124 207.47604 23.05 207.05417Q22.596874 206.61667 21.878124 206.61667Q21.1125 206.61667 20.659374 207.0698Q20.20625 207.52292 20.190624 208.33542L19.1125 208.22604Q19.221874 207.0073 19.940624 206.3823Q20.675 205.74167 21.909374 205.74167Q23.14375 205.74167 23.8625 206.42917Q24.58125 207.11667 24.58125 208.1323Q24.58125 208.64792 24.3625 209.14792Q24.159374 209.6323 23.659374 210.1948Q23.175 210.74167 22.05 211.6948Q21.096874 212.49167 20.815624 212.78854Q20.55 213.0698 20.378124 213.35104L24.596874 213.35104ZM26.05 210.1323Q26.05 208.60104 26.3625 207.67917Q26.675 206.74167 27.284374 206.24167Q27.909374 205.74167 28.846874 205.74167Q29.534374 205.74167 30.05 206.02292Q30.58125 206.30417 30.925 206.83542Q31.26875 207.35104 31.45625 208.10104Q31.64375 208.85104 31.64375 210.1323Q31.64375 211.64792 31.33125 212.5698Q31.034374 213.49167 30.409374 214.0073Q29.8 214.5073 28.846874 214.5073Q27.6125 214.5073 26.89375 213.61667Q26.05 212.55417 26.05 210.1323ZM27.128124 210.1323Q27.128124 212.24167 27.628124 212.9448Q28.128124 213.64792 28.846874 213.64792Q29.58125 213.64792 30.065624 212.9448Q30.565624 212.24167 30.565624 210.1323Q30.565624 208.0073 30.065624 207.3198Q29.58125 206.61667 28.83125 206.61667Q28.1125 206.61667 27.675 207.22604Q27.128124 208.0073 27.128124 210.1323ZM33.05 210.1323Q33.05 208.60104 33.3625 207.67917Q33.675 206.74167 34.284374 206.24167Q34.909374 205.74167 35.846874 205.74167Q36.534374 205.74167 37.05 206.02292Q37.58125 206.30417 37.925 206.83542Q38.26875 207.35104 38.45625 208.10104Q38.64375 208.85104 38.64375 210.1323Q38.64375 211.64792 38.33125 212.5698Q38.034374 213.49167 37.409374 214.0073Q36.8 214.5073 35.846874 214.5073Q34.6125 214.5073 33.89375 213.61667Q33.05 212.55417 33.05 210.1323ZM34.128124 210.1323Q34.128124 212.24167 34.628124 212.9448Q35.128124 213.64792 35.846874 213.64792Q36.58125 213.64792 37.065624 212.9448Q37.565624 212.24167 37.565624 210.1323Q37.565624 208.0073 37.065624 207.3198Q36.58125 206.61667 35.83125 206.61667Q35.1125 206.61667 34.675 207.22604Q34.128124 208.0073 34.128124 210.1323ZM40.05 210.1323Q40.05 208.60104 40.3625 207.67917Q40.675 206.74167 41.284374 206.24167Q41.909374 205.74167 42.846874 205.74167Q43.534374 205.74167 44.05 206.02292Q44.58125 206.30417 44.925 206.83542Q45.26875 207.35104 45.45625 208.10104Q45.64375 208.85104 45.64375 210.1323Q45.64375 211.64792 45.33125 212.5698Q45.034374 213.49167 44.409374 214.0073Q43.8 214.5073 42.846874 214.5073Q41.6125 214.5073 40.89375 213.61667Q40.05 212.55417 40.05 210.1323ZM41.128124 210.1323Q41.128124 212.24167 41.628124 212.9448Q42.128124 213.64792 42.846874 213.64792Q43.58125 213.64792 44.065624 212.9448Q44.565624 212.24167 44.565624 210.1323Q44.565624 208.0073 44.065624 207.3198Q43.58125 206.61667 42.83125 206.61667Q42.1125 206.61667 41.675 207.22604Q41.128124 208.0073 41.128124 210.1323ZM47.05 210.1323Q47.05 208.60104 47.3625 207.67917Q47.675 206.74167 48.284374 206.24167Q48.909374 205.74167 49.846874 205.74167Q50.534374 205.74167 51.05 206.02292Q51.58125 206.30417 51.925 206.83542Q52.26875 207.35104 52.45625 208.10104Q52.64375 208.85104 52.64375 210.1323Q52.64375 211.64792 52.33125 212.5698Q52.034374 213.49167 51.409374 214.0073Q50.8 214.5073 49.846874 214.5073Q48.6125 214.5073 47.89375 213.61667Q47.05 212.55417 47.05 210.1323ZM48.128124 210.1323Q48.128124 212.24167 48.628124 212.9448Q49.128124 213.64792 49.846874 213.64792Q50.58125 213.64792 51.065624 212.9448Q51.565624 212.24167 51.565624 210.1323Q51.565624 208.0073 51.065624 207.3198Q50.58125 206.61667 49.83125 206.61667Q49.1125 206.61667 48.675 207.22604Q48.128124 208.0073 48.128124 210.1323ZM54.05 210.1323Q54.05 208.60104 54.3625 207.67917Q54.675 206.74167 55.284374 206.24167Q55.909374 205.74167 56.846874 205.74167Q57.534374 205.74167 58.05 206.02292Q58.58125 206.30417 58.925 206.83542Q59.26875 207.35104 59.45625 208.10104Q59.64375 208.85104 59.64375 210.1323Q59.64375 211.64792 59.33125 212.5698Q59.034374 213.49167 58.409374 214.0073Q57.8 214.5073 56.846874 214.5073Q55.6125 214.5073 54.89375 213.61667Q54.05 212.55417 54.05 210.1323ZM55.128124 210.1323Q55.128124 212.24167 55.628124 212.9448Q56.128124 213.64792 56.846874 213.64792Q57.58125 213.64792 58.065624 212.9448Q58.565624 212.24167 58.565624 210.1323Q58.565624 208.0073 58.065624 207.3198Q57.58125 206.61667 56.83125 206.61667Q56.1125 206.61667 55.675 207.22604Q55.128124 208.0073 55.128124 210.1323Z" fill-rule="nonzero"/><path fill="#000000" d="M19.05 151.05937L20.1125 150.91875Q20.284374 151.80937 20.721874 152.21562Q21.159374 152.60625 21.784374 152.60625Q22.534374 152.60625 23.05 152.09062Q23.565624 151.575 23.565624 150.80937Q23.565624 150.09062 23.08125 149.62187Q22.6125 149.1375 21.878124 149.1375Q21.58125 149.1375 21.128124 149.2625L21.253124 148.325Q21.3625 148.34062 21.425 148.34062Q22.096874 148.34062 22.628124 147.99687Q23.175 147.6375 23.175 146.90312Q23.175 146.325 22.784374 145.95Q22.39375 145.55937 21.76875 145.55937Q21.159374 145.55937 20.7375 145.95Q20.33125 146.34062 20.221874 147.10625L19.159374 146.91875Q19.346874 145.87187 20.034374 145.29375Q20.721874 144.7 21.7375 144.7Q22.440624 144.7 23.034374 145.0125Q23.628124 145.30937 23.940624 145.825Q24.253124 146.34062 24.253124 146.93437Q24.253124 147.48125 23.95625 147.95Q23.659374 148.40312 23.08125 148.66875Q23.83125 148.84062 24.253124 149.40312Q24.675 149.95 24.675 150.79375Q24.675 151.91875 23.846874 152.7Q23.034374 153.48125 21.784374 153.48125Q20.659374 153.48125 19.909374 152.80937Q19.159374 152.12187 19.05 151.05937ZM26.05 149.09062Q26.05 147.55937 26.3625 146.6375Q26.675 145.7 27.284374 145.2Q27.909374 144.7 28.846874 144.7Q29.534374 144.7 30.05 144.98125Q30.58125 145.2625 30.925 145.79375Q31.26875 146.30937 31.45625 147.05937Q31.64375 147.80937 31.64375 149.09062Q31.64375 150.60625 31.33125 151.52812Q31.034374 152.45 30.409374 152.96562Q29.8 153.46562 28.846874 153.46562Q27.6125 153.46562 26.89375 152.575Q26.05 151.5125 26.05 149.09062ZM27.128124 149.09062Q27.128124 151.2 27.628124 151.90312Q28.128124 152.60625 28.846874 152.60625Q29.58125 152.60625 30.065624 151.90312Q30.565624 151.2 30.565624 149.09062Q30.565624 146.96562 30.065624 146.27812Q29.58125 145.575 28.83125 145.575Q28.1125 145.575 27.675 146.18437Q27.128124 146.96562 27.128124 149.09062ZM33.05 149.09062Q33.05 147.55937 33.3625 146.6375Q33.675 145.7 34.284374 145.2Q34.909374 144.7 35.846874 144.7Q36.534374 144.7 37.05 144.98125Q37.58125 145.2625 37.925 145.79375Q38.26875 146.30937 38.45625 147.05937Q38.64375 147.80937 38.64375 149.09062Q38.64375 150.60625 38.33125 151.52812Q38.034374 152.45 37.409374 152.96562Q36.8 153.46562 35.846874 153.46562Q34.6125 153.46562 33.89375 152.575Q33.05 151.5125 33.05 149.09062ZM34.128124 149.09062Q34.128124 151.2 34.628124 151.90312Q35.128124 152.60625 35.846874 152.60625Q36.58125 152.60625 37.065624 151.90312Q37.565624 151.2 37.565624 149.09062Q37.565624 146.96562 37.065624 146.27812Q36.58125 145.575 35.83125 145.575Q35.1125 145.575 34.675 146.18437Q34.128124 146.96562 34.128124 149.09062ZM40.05 149.09062Q40.05 147.55937 40.3625 146.6375Q40.675 145.7 41.284374 145.2Q41.909374 144.7 42.846874 144.7Q43.534374 144.7 44.05 144.98125Q44.58125 145.2625 44.925 145.79375Q45.26875 146.30937 45.45625 147.05937Q45.64375 147.80937 45.64375 149.09062Q45.64375 150.60625 45.33125 151.52812Q45.034374 152.45 44.409374 152.96562Q43.8 153.46562 42.846874 153.46562Q41.6125 153.46562 40.89375 152.575Q40.05 151.5125 40.05 149.09062ZM41.128124 149.09062Q41.128124 151.2 41.628124 151.90312Q42.128124 152.60625 42.846874 152.60625Q43.58125 152.60625 44.065624 151.90312Q44.565624 151.2 44.565624 149.09062Q44.565624 146.96562 44.065624 146.27812Q43.58125 145.575 42.83125 145.575Q42.1125 145.575 41.675 146.18437Q41.128124 146.96562 41.128124 149.09062ZM47.05 149.09062Q47.05 147.55937 47.3625 146.6375Q47.675 145.7 48.284374 145.2Q48.909374 144.7 49.846874 144.7Q50.534374 144.7 51.05 144.98125Q51.58125 145.2625 51.925 145.79375Q52.26875 146.30937 52.45625 147.05937Q52.64375 147.80937 52.64375 149.09062Q52.64375 150.60625 52.33125 151.52812Q52.034374 152.45 51.409374 152.96562Q50.8 153.46562 49.846874 153.46562Q48.6125 153.46562 47.89375 152.575Q47.05 151.5125 47.05 149.09062ZM48.128124 149.09062Q48.128124 151.2 48.628124 151.90312Q49.128124 152.60625 49.846874 152.60625Q50.58125 152.60625 51.065624 151.90312Q51.565624 151.2 51.565624 149.09062Q51.565624 146.96562 51.065624 146.27812Q50.58125 145.575 49.83125 145.575Q49.1125 145.575 48.675 146.18437Q48.128124 146.96562 48.128124 149.09062ZM54.05 149.09062Q54.05 147.55937 54.3625 146.6375Q54.675 145.7 55.284374 145.2Q55.909374 144.7 56.846874 144.7Q57.534374 144.7 58.05 144.98125Q58.58125 145.2625 58.925 145.79375Q59.26875 146.30937 59.45625 147.05937Q59.64375 147.80937 59.64375 149.09062Q59.64375 150.60625 59.33125 151.52812Q59.034374 152.45 58.409374 152.96562Q57.8 153.46562 56.846874 153.46562Q55.6125 153.46562 54.89375 152.575Q54.05 151.5125 54.05 149.09062ZM55.128124 149.09062Q55.128124 151.2 55.628124 151.90312Q56.128124 152.60625 56.846874 152.60625Q57.58125 152.60625 58.065624 151.90312Q58.565624 151.2 58.565624 149.09062Q58.565624 146.96562 58.065624 146.27812Q57.58125 145.575 56.83125 145.575Q56.1125 145.575 55.675 146.18437Q55.128124 146.96562 55.128124 149.09062Z" fill-rule="nonzero"/><path fill="#000000" d="M22.425 92.28333L22.425 90.22083L18.70625 90.22083L18.70625 89.25208L22.628124 83.68958L23.4875 83.68958L23.4875 89.25208L24.64375 89.25208L24.64375 90.22083L23.4875 90.22083L23.4875 92.28333L22.425 92.28333ZM22.425 89.25208L22.425 85.39271L19.7375 89.25208L22.425 89.25208ZM26.05 88.04896Q26.05 86.51771 26.3625 85.59583Q26.675 84.65833 27.284374 84.15833Q27.909374 83.65833 28.846874 83.65833Q29.534374 83.65833 30.05 83.93958Q30.58125 84.22083 30.925 84.75208Q31.26875 85.26771 31.45625 86.01771Q31.64375 86.76771 31.64375 88.04896Q31.64375 89.56458 31.33125 90.48646Q31.034374 91.40833 30.409374 91.92396Q29.8 92.42396 28.846874 92.42396Q27.6125 92.42396 26.89375 91.53333Q26.05 90.47083 26.05 88.04896ZM27.128124 88.04896Q27.128124 90.15833 27.628124 90.86146Q28.128124 91.56458 28.846874 91.56458Q29.58125 91.56458 30.065624 90.86146Q30.565624 90.15833 30.565624 88.04896Q30.565624 85.92396 30.065624 85.23646Q29.58125 84.53333 28.83125 84.53333Q28.1125 84.53333 27.675 85.14271Q27.128124 85.92396 27.128124 88.04896ZM33.05 88.04896Q33.05 86.51771 33.3625 85.59583Q33.675 84.65833 34.284374 84.15833Q34.909374 83.65833 35.846874 83.65833Q36.534374 83.65833 37.05 83.93958Q37.58125 84.22083 37.925 84.75208Q38.26875 85.26771 38.45625 86.01771Q38.64375 86.76771 38.64375 88.04896Q38.64375 89.56458 38.33125 90.48646Q38.034374 91.40833 37.409374 91.92396Q36.8 92.42396 35.846874 92.42396Q34.6125 92.42396 33.89375 91.53333Q33.05 90.47083 33.05 88.04896ZM34.128124 88.04896Q34.128124 90.15833 34.628124 90.86146Q35.128124 91.56458 35.846874 91.56458Q36.58125 91.56458 37.065624 90.86146Q37.565624 90.15833 37.565624 88.04896Q37.565624 85.92396 37.065624 85.23646Q36.58125 84.53333 35.83125 84.53333Q35.1125 84.53333 34.675 85.14271Q34.128124 85.92396 34.128124 88.04896ZM40.05 88.04896Q40.05 86.51771 40.3625 85.59583Q40.675 84.65833 41.284374 84.15833Q41.909374 83.65833 42.846874 83.65833Q43.534374 83.65833 44.05 83.93958Q44.58125 84.22083 44.925 84.75208Q45.26875 85.26771 45.45625 86.01771Q45.64375 86.76771 45.64375 88.04896Q45.64375 89.56458 45.33125 90.48646Q45.034374 91.40833 44.409374 91.92396Q43.8 92.42396 42.846874 92.42396Q41.6125 92.42396 40.89375 91.53333Q40.05 90.47083 40.05 88.04896ZM41.128124 88.04896Q41.128124 90.15833 41.628124 90.86146Q42.128124 91.56458 42.846874 91.56458Q43.58125 91.56458 44.065624 90.86146Q44.565624 90.15833 44.565624 88.04896Q44.565624 85.92396 44.065624 85.23646Q43.58125 84.53333 42.83125 84.53333Q42.1125 84.53333 41.675 85.14271Q41.128124 85.92396 41.128124 88.04896ZM47.05 88.04896Q47.05 86.51771 47.3625 85.59583Q47.675 84.65833 48.284374 84.15833Q48.909374 83.65833 49.846874 83.65833Q50.534374 83.65833 51.05 83.93958Q51.58125 84.22083 51.925 84.75208Q52.26875 85.26771 52.45625 86.01771Q52.64375 86.76771 52.64375 88.04896Q52.64375 89.56458 52.33125 90.48646Q52.034374 91.40833 51.409374 91.92396Q50.8 92.42396 49.846874 92.42396Q48.6125 92.42396 47.89375 91.53333Q47.05 90.47083 47.05 88.04896ZM48.128124 88.04896Q48.128124 90.15833 48.628124 90.86146Q49.128124 91.56458 49.846874 91.56458Q50.58125 91.56458 51.065624 90.86146Q51.565624 90.15833 51.565624 88.04896Q51.565624 85.92396 51.065624 85.23646Q50.58125 84.53333 49.83125 84.53333Q49.1125 84.53333 48.675 85.14271Q48.128124 85.92396 48.128124 88.04896ZM54.05 88.04896Q54.05 86.51771 54.3625 85.59583Q54.675 84.65833 55.284374 84.15833Q55.909374 83.65833 56.846874 83.65833Q57.534374 83.65833 58.05 83.93958Q58.58125 84.22083 58.925 84.75208Q59.26875 85.26771 59.45625 86.01771Q59.64375 86.76771 59.64375 88.04896Q59.64375 89.56458 59.33125 90.48646Q59.034374 91.40833 58.409374 91.92396Q57.8 92.42396 56.846874 92.42396Q55.6125 92.42396 54.89375 91.53333Q54.05 90.47083 54.05 88.04896ZM55.128124 88.04896Q55.128124 90.15833 55.628124 90.86146Q56.128124 91.56458 56.846874 91.56458Q57.58125 91.56458 58.065624 90.86146Q58.565624 90.15833 58.565624 88.04896Q58.565624 85.92396 58.065624 85.23646Q57.58125 84.53333 56.83125 84.53333Q56.1125 84.53333 55.675 85.14271Q55.128124 85.92396 55.128124 88.04896Z" fill-rule="nonzero"/><path fill="#000000" d="M79.70243 348.4344L79.70243 349.45L74.01493 349.45Q74.01493 349.075 74.13993 348.71564Q74.35868 348.1375 74.82743 347.575Q75.311806 347.0125 76.218056 346.27814Q77.624306 345.1219 78.10868 344.45Q78.60868 343.77814 78.60868 343.1844Q78.60868 342.5594 78.155556 342.1375Q77.70243 341.7 76.98368 341.7Q76.218056 341.7 75.76493 342.15314Q75.311806 342.60626 75.29618 343.41876L74.218056 343.3094Q74.32743 342.09064 75.04618 341.46564Q75.780556 340.825 77.01493 340.825Q78.249306 340.825 78.968056 341.5125Q79.686806 342.2 79.686806 343.21564Q79.686806 343.73126 79.468056 344.23126Q79.26493 344.71564 78.76493 345.27814Q78.280556 345.825 77.155556 346.77814Q76.20243 347.575 75.92118 347.8719Q75.655556 348.15314 75.48368 348.4344L79.70243 348.4344ZM83.749306 348.5125L83.905556 349.4344Q83.45243 349.52814 83.10868 349.52814Q82.530556 349.52814 82.218056 349.35626Q81.905556 349.16876 81.76493 348.8719Q81.63993 348.575 81.63993 347.6219L81.63993 344.04376L80.874306 344.04376L80.874306 343.23126L81.63993 343.23126L81.63993 341.6844L82.686806 341.0594L82.686806 343.23126L83.749306 343.23126L83.749306 344.04376L82.686806 344.04376L82.686806 347.6844Q82.686806 348.1375 82.73368 348.2625Q82.79618 348.3875 82.92118 348.46564Q83.04618 348.54376 83.280556 348.54376Q83.468056 348.54376 83.749306 348.5125ZM84.718056 349.45L84.718056 348.2469L85.92118 348.2469L85.92118 349.45Q85.92118 350.10626 85.686806 350.5125Q85.45243 350.9344 84.95243 351.15314L84.655556 350.7Q84.98368 350.5594 85.13993 350.2625Q85.29618 349.98126 85.32743 349.45L84.718056 349.45ZM94.124306 349.45L93.07743 349.45L93.07743 342.73126Q92.686806 343.09064 92.061806 343.46564Q91.45243 343.825 90.968056 343.9969L90.968056 342.98126Q91.843056 342.5594 92.499306 341.98126Q93.17118 341.3875 93.45243 340.825L94.124306 340.825L94.124306 349.45ZM97.155556 345.21564Q97.155556 343.6844 97.468056 342.7625Q97.780556 341.825 98.38993 341.325Q99.01493 340.825 99.95243 340.825Q100.63993 340.825 101.155556 341.10626Q101.686806 341.3875 102.030556 341.91876Q102.374306 342.4344 102.561806 343.1844Q102.749306 343.9344 102.749306 345.21564Q102.749306 346.73126 102.436806 347.65314Q102.13993 348.575 101.51493 349.09064Q100.905556 349.59064 99.95243 349.59064Q98.718056 349.59064 97.999306 348.7Q97.155556 347.6375 97.155556 345.21564ZM98.23368 345.21564Q98.23368 347.325 98.73368 348.02814Q99.23368 348.73126 99.95243 348.73126Q100.686806 348.73126 101.17118 348.02814Q101.67118 347.325 101.67118 345.21564Q101.67118 343.09064 101.17118 342.40314Q100.686806 341.7 99.936806 341.7Q99.218056 341.7 98.780556 342.3094Q98.23368 343.09064 98.23368 345.21564ZM104.155556 345.21564Q104.155556 343.6844 104.468056 342.7625Q104.780556 341.825 105.38993 341.325Q106.01493 340.825 106.95243 340.825Q107.63993 340.825 108.155556 341.10626Q108.686806 341.3875 109.030556 341.91876Q109.374306 342.4344 109.561806 343.1844Q109.749306 343.9344 109.749306 345.21564Q109.749306 346.73126 109.436806 347.65314Q109.13993 348.575 108.51493 349.09064Q107.905556 349.59064 106.95243 349.59064Q105.718056 349.59064 104.999306 348.7Q104.155556 347.6375 104.155556 345.21564ZM105.23368 345.21564Q105.23368 347.325 105.73368 348.02814Q106.23368 348.73126 106.95243 348.73126Q107.686806 348.73126 108.17118 348.02814Q108.67118 347.325 108.67118 345.21564Q108.67118 343.09064 108.17118 342.40314Q107.686806 341.7 106.936806 341.7Q106.218056 341.7 105.780556 342.3094Q105.23368 343.09064 105.23368 345.21564ZM115.51493 347.16876L116.54618 347.3094Q116.374306 348.3719 115.67118 348.98126Q114.968056 349.59064 113.95243 349.59064Q112.67118 349.59064 111.88993 348.7625Q111.124306 347.91876 111.124306 346.35626Q111.124306 345.35626 111.45243 344.60626Q111.79618 343.84064 112.468056 343.46564Q113.155556 343.09064 113.968056 343.09064Q114.968056 343.09064 115.60868 343.60626Q116.26493 344.10626 116.45243 345.0594L115.42118 345.21564Q115.280556 344.59064 114.905556 344.27814Q114.530556 343.95 113.999306 343.95Q113.20243 343.95 112.70243 344.52814Q112.20243 345.09064 112.20243 346.325Q112.20243 347.59064 112.686806 348.15314Q113.17118 348.71564 113.936806 348.71564Q114.561806 348.71564 114.968056 348.34064Q115.38993 347.96564 115.51493 347.16876Z" fill-rule="nonzero"/><path fill="#000000" d="M136.91354 348.4344L136.91354 349.45L131.22604 349.45Q131.22604 349.075 131.35104 348.71564Q131.5698 348.1375 132.03854 347.575Q132.52292 347.0125 133.42917 346.27814Q134.83542 345.1219 135.3198 344.45Q135.8198 343.77814 135.8198 343.1844Q135.8198 342.5594 135.36667 342.1375Q134.91354 341.7 134.1948 341.7Q133.42917 341.7 132.97604 342.15314Q132.52292 342.60626 132.5073 343.41876L131.42917 343.3094Q131.53854 342.09064 132.2573 341.46564Q132.99167 340.825 134.22604 340.825Q135.46042 340.825 136.17917 341.5125Q136.89792 342.2 136.89792 343.21564Q136.89792 343.73126 136.67917 344.23126Q136.47604 344.71564 135.97604 345.27814Q135.49167 345.825 134.36667 346.77814Q133.41354 347.575 133.1323 347.8719Q132.86667 348.15314 132.6948 348.4344L136.91354 348.4344ZM140.96042 348.5125L141.11667 349.4344Q140.66354 349.52814 140.3198 349.52814Q139.74167 349.52814 139.42917 349.35626Q139.11667 349.16876 138.97604 348.8719Q138.85104 348.575 138.85104 347.6219L138.85104 344.04376L138.08542 344.04376L138.08542 343.23126L138.85104 343.23126L138.85104 341.6844L139.89792 341.0594L139.89792 343.23126L140.96042 343.23126L140.96042 344.04376L139.89792 344.04376L139.89792 347.6844Q139.89792 348.1375 139.9448 348.2625Q140.0073 348.3875 140.1323 348.46564Q140.2573 348.54376 140.49167 348.54376Q140.67917 348.54376 140.96042 348.5125ZM141.92917 349.45L141.92917 348.2469L143.1323 348.2469L143.1323 349.45Q143.1323 350.10626 142.89792 350.5125Q142.66354 350.9344 142.16354 351.15314L141.86667 350.7Q142.1948 350.5594 142.35104 350.2625Q142.5073 349.98126 142.53854 349.45L141.92917 349.45ZM152.91354 348.4344L152.91354 349.45L147.22604 349.45Q147.22604 349.075 147.35104 348.71564Q147.5698 348.1375 148.03854 347.575Q148.52292 347.0125 149.42917 346.27814Q150.83542 345.1219 151.3198 344.45Q151.8198 343.77814 151.8198 343.1844Q151.8198 342.5594 151.36667 342.1375Q150.91354 341.7 150.1948 341.7Q149.42917 341.7 148.97604 342.15314Q148.52292 342.60626 148.5073 343.41876L147.42917 343.3094Q147.53854 342.09064 148.2573 341.46564Q148.99167 340.825 150.22604 340.825Q151.46042 340.825 152.17917 341.5125Q152.89792 342.2 152.89792 343.21564Q152.89792 343.73126 152.67917 344.23126Q152.47604 344.71564 151.97604 345.27814Q151.49167 345.825 150.36667 346.77814Q149.41354 347.575 149.1323 347.8719Q148.86667 348.15314 148.6948 348.4344L152.91354 348.4344ZM154.36667 345.21564Q154.36667 343.6844 154.67917 342.7625Q154.99167 341.825 155.60104 341.325Q156.22604 340.825 157.16354 340.825Q157.85104 340.825 158.36667 341.10626Q158.89792 341.3875 159.24167 341.91876Q159.58542 342.4344 159.77292 343.1844Q159.96042 343.9344 159.96042 345.21564Q159.96042 346.73126 159.64792 347.65314Q159.35104 348.575 158.72604 349.09064Q158.11667 349.59064 157.16354 349.59064Q155.92917 349.59064 155.21042 348.7Q154.36667 347.6375 154.36667 345.21564ZM155.4448 345.21564Q155.4448 347.325 155.9448 348.02814Q156.4448 348.73126 157.16354 348.73126Q157.89792 348.73126 158.3823 348.02814Q158.8823 347.325 158.8823 345.21564Q158.8823 343.09064 158.3823 342.40314Q157.89792 341.7 157.14792 341.7Q156.42917 341.7 155.99167 342.3094Q155.4448 343.09064 155.4448 345.21564ZM161.36667 345.21564Q161.36667 343.6844 161.67917 342.7625Q161.99167 341.825 162.60104 341.325Q163.22604 340.825 164.16354 340.825Q164.85104 340.825 165.36667 341.10626Q165.89792 341.3875 166.24167 341.91876Q166.58542 342.4344 166.77292 343.1844Q166.96042 343.9344 166.96042 345.21564Q166.96042 346.73126 166.64792 347.65314Q166.35104 348.575 165.72604 349.09064Q165.11667 349.59064 164.16354 349.59064Q162.92917 349.59064 162.21042 348.7Q161.36667 347.6375 161.36667 345.21564ZM162.4448 345.21564Q162.4448 347.325 162.9448 348.02814Q163.4448 348.73126 164.16354 348.73126Q164.89792 348.73126 165.3823 348.02814Q165.8823 347.325 165.8823 345.21564Q165.8823 343.09064 165.3823 342.40314Q164.89792 341.7 164.14792 341.7Q163.42917 341.7 162.99167 342.3094Q162.4448 343.09064 162.4448 345.21564ZM172.72604 347.16876L173.7573 347.3094Q173.58542 348.3719 172.8823 348.98126Q172.17917 349.59064 171.16354 349.59064Q169.8823 349.59064 169.10104 348.7625Q168.33542 347.91876 168.33542 346.35626Q168.33542 345.35626 168.66354 344.60626Q169.0073 343.84064 169.67917 343.46564Q170.36667 343.09064 171.17917 343.09064Q172.17917 343.09064 172.8198 343.60626Q173.47604 344.10626 173.66354 345.0594L172.6323 345.21564Q172.49167 344.59064 172.11667 344.27814Q171.74167 343.95 171.21042 343.95Q170.41354 343.95 169.91354 344.52814Q169.41354 345.09064 169.41354 346.325Q169.41354 347.59064 169.89792 348.15314Q170.3823 348.71564 171.14792 348.71564Q171.77292 348.71564 172.17917 348.34064Q172.60104 347.96564 172.72604 347.16876Z" fill-rule="nonzero"/><path fill="#000000" d="M194.12465 348.4344L194.12465 349.45L188.43715 349.45Q188.43715 349.075 188.56215 348.71564Q188.7809 348.1375 189.24965 347.575Q189.73402 347.0125 190.64027 346.27814Q192.04652 345.1219 192.5309 344.45Q193.0309 343.77814 193.0309 343.1844Q193.0309 342.5594 192.57777 342.1375Q192.12465 341.7 191.4059 341.7Q190.64027 341.7 190.18715 342.15314Q189.73402 342.60626 189.7184 343.41876L188.64027 343.3094Q188.74965 342.09064 189.4684 341.46564Q190.20277 340.825 191.43715 340.825Q192.67152 340.825 193.39027 341.5125Q194.10902 342.2 194.10902 343.21564Q194.10902 343.73126 193.89027 344.23126Q193.68715 344.71564 193.18715 345.27814Q192.70277 345.825 191.57777 346.77814Q190.62465 347.575 190.3434 347.8719Q190.07777 348.15314 189.9059 348.4344L194.12465 348.4344ZM198.17152 348.5125L198.32777 349.4344Q197.87465 349.52814 197.5309 349.52814Q196.95277 349.52814 196.64027 349.35626Q196.32777 349.16876 196.18715 348.8719Q196.06215 348.575 196.06215 347.6219L196.06215 344.04376L195.29652 344.04376L195.29652 343.23126L196.06215 343.23126L196.06215 341.6844L197.10902 341.0594L197.10902 343.23126L198.17152 343.23126L198.17152 344.04376L197.10902 344.04376L197.10902 347.6844Q197.10902 348.1375 197.1559 348.2625Q197.2184 348.3875 197.3434 348.46564Q197.4684 348.54376 197.70277 348.54376Q197.89027 348.54376 198.17152 348.5125ZM199.14027 349.45L199.14027 348.2469L200.3434 348.2469L200.3434 349.45Q200.3434 350.10626 200.10902 350.5125Q199.87465 350.9344 199.37465 351.15314L199.07777 350.7Q199.4059 350.5594 199.56215 350.2625Q199.7184 349.98126 199.74965 349.45L199.14027 349.45ZM207.95277 349.45L207.95277 347.3875L204.23402 347.3875L204.23402 346.41876L208.1559 340.85626L209.01527 340.85626L209.01527 346.41876L210.17152 346.41876L210.17152 347.3875L209.01527 347.3875L209.01527 349.45L207.95277 349.45ZM207.95277 346.41876L207.95277 342.5594L205.26527 346.41876L207.95277 346.41876ZM211.57777 345.21564Q211.57777 343.6844 211.89027 342.7625Q212.20277 341.825 212.81215 341.325Q213.43715 340.825 214.37465 340.825Q215.06215 340.825 215.57777 341.10626Q216.10902 341.3875 216.45277 341.91876Q216.79652 342.4344 216.98402 343.1844Q217.17152 343.9344 217.17152 345.21564Q217.17152 346.73126 216.85902 347.65314Q216.56215 348.575 215.93715 349.09064Q215.32777 349.59064 214.37465 349.59064Q213.14027 349.59064 212.42152 348.7Q211.57777 347.6375 211.57777 345.21564ZM212.6559 345.21564Q212.6559 347.325 213.1559 348.02814Q213.6559 348.73126 214.37465 348.73126Q215.10902 348.73126 215.5934 348.02814Q216.0934 347.325 216.0934 345.21564Q216.0934 343.09064 215.5934 342.40314Q215.10902 341.7 214.35902 341.7Q213.64027 341.7 213.20277 342.3094Q212.6559 343.09064 212.6559 345.21564ZM218.57777 345.21564Q218.57777 343.6844 218.89027 342.7625Q219.20277 341.825 219.81215 341.325Q220.43715 340.825 221.37465 340.825Q222.06215 340.825 222.57777 341.10626Q223.10902 341.3875 223.45277 341.91876Q223.79652 342.4344 223.98402 343.1844Q224.17152 343.9344 224.17152 345.21564Q224.17152 346.73126 223.85902 347.65314Q223.56215 348.575 222.93715 349.09064Q222.32777 349.59064 221.37465 349.59064Q220.14027 349.59064 219.42152 348.7Q218.57777 347.6375 218.57777 345.21564ZM219.6559 345.21564Q219.6559 347.325 220.1559 348.02814Q220.6559 348.73126 221.37465 348.73126Q222.10902 348.73126 222.5934 348.02814Q223.0934 347.325 223.0934 345.21564Q223.0934 343.09064 222.5934 342.40314Q222.10902 341.7 221.35902 341.7Q220.64027 341.7 220.20277 342.3094Q219.6559 343.09064 219.6559 345.21564ZM229.93715 347.16876L230.9684 347.3094Q230.79652 348.3719 230.0934 348.98126Q229.39027 349.59064 228.37465 349.59064Q227.0934 349.59064 226.31215 348.7625Q225.54652 347.91876 225.54652 346.35626Q225.54652 345.35626 225.87465 344.60626Q226.2184 343.84064 226.89027 343.46564Q227.57777 343.09064 228.39027 343.09064Q229.39027 343.09064 230.0309 343.60626Q230.68715 344.10626 230.87465 345.0594L229.8434 345.21564Q229.70277 344.59064 229.32777 344.27814Q228.95277 343.95 228.42152 343.95Q227.62465 343.95 227.12465 344.52814Q226.62465 345.09064 226.62465 346.325Q226.62465 347.59064 227.10902 348.15314Q227.5934 348.71564 228.35902 348.71564Q228.98402 348.71564 229.39027 348.34064Q229.81215 347.96564 229.93715 347.16876Z" fill-rule="nonzero"/><path fill="#000000" d="M251.25764 342.96564L250.21077 343.04376Q250.07014 342.41876 249.82014 342.1375Q249.38264 341.6844 248.75764 341.6844Q248.25764 341.6844 247.86702 341.96564Q247.38264 342.34064 247.08577 343.04376Q246.80452 343.73126 246.7889 345.0125Q247.1639 344.4344 247.71077 344.15314Q248.27327 343.8719 248.88264 343.8719Q249.92952 343.8719 250.6639 344.65314Q251.4139 345.4344 251.4139 346.65314Q251.4139 347.46564 251.05452 348.16876Q250.71077 348.85626 250.1014 349.23126Q249.49202 349.59064 248.7264 349.59064Q247.39827 349.59064 246.57014 348.6219Q245.74202 347.65314 245.74202 345.4344Q245.74202 342.9344 246.6639 341.8094Q247.46077 340.825 248.82014 340.825Q249.83577 340.825 250.4764 341.40314Q251.13264 341.96564 251.25764 342.96564ZM246.96077 346.66876Q246.96077 347.21564 247.17952 347.71564Q247.4139 348.2 247.82014 348.46564Q248.24202 348.73126 248.71077 348.73126Q249.36702 348.73126 249.8514 348.2Q250.33577 347.65314 250.33577 346.73126Q250.33577 345.84064 249.8514 345.325Q249.38264 344.8094 248.6639 344.8094Q247.94514 344.8094 247.44514 345.325Q246.96077 345.84064 246.96077 346.66876ZM255.38264 348.5125L255.5389 349.4344Q255.08577 349.52814 254.74202 349.52814Q254.1639 349.52814 253.8514 349.35626Q253.5389 349.16876 253.39827 348.8719Q253.27327 348.575 253.27327 347.6219L253.27327 344.04376L252.50764 344.04376L252.50764 343.23126L253.27327 343.23126L253.27327 341.6844L254.32014 341.0594L254.32014 343.23126L255.38264 343.23126L255.38264 344.04376L254.32014 344.04376L254.32014 347.6844Q254.32014 348.1375 254.36702 348.2625Q254.42952 348.3875 254.55452 348.46564Q254.67952 348.54376 254.9139 348.54376Q255.1014 348.54376 255.38264 348.5125ZM256.35138 349.45L256.35138 348.2469L257.5545 348.2469L257.5545 349.45Q257.5545 350.10626 257.32013 350.5125Q257.08575 350.9344 256.58575 351.15314L256.28888 350.7Q256.617 350.5594 256.77325 350.2625Q256.9295 349.98126 256.96075 349.45L256.35138 349.45ZM265.75763 349.45L264.71075 349.45L264.71075 342.73126Q264.32013 343.09064 263.69513 343.46564Q263.08575 343.825 262.60138 343.9969L262.60138 342.98126Q263.47638 342.5594 264.13263 341.98126Q264.8045 341.3875 265.08575 340.825L265.75763 340.825L265.75763 349.45ZM268.78888 345.21564Q268.78888 343.6844 269.10138 342.7625Q269.41388 341.825 270.02325 341.325Q270.64825 340.825 271.58575 340.825Q272.27325 340.825 272.78888 341.10626Q273.32013 341.3875 273.66388 341.91876Q274.00763 342.4344 274.19513 343.1844Q274.38263 343.9344 274.38263 345.21564Q274.38263 346.73126 274.07013 347.65314Q273.77325 348.575 273.14825 349.09064Q272.53888 349.59064 271.58575 349.59064Q270.35138 349.59064 269.63263 348.7Q268.78888 347.6375 268.78888 345.21564ZM269.867 345.21564Q269.867 347.325 270.367 348.02814Q270.867 348.73126 271.58575 348.73126Q272.32013 348.73126 272.8045 348.02814Q273.3045 347.325 273.3045 345.21564Q273.3045 343.09064 272.8045 342.40314Q272.32013 341.7 271.57013 341.7Q270.85138 341.7 270.41388 342.3094Q269.867 343.09064 269.867 345.21564ZM275.78888 345.21564Q275.78888 343.6844 276.10138 342.7625Q276.41388 341.825 277.02325 341.325Q277.64825 340.825 278.58575 340.825Q279.27325 340.825 279.78888 341.10626Q280.32013 341.3875 280.66388 341.91876Q281.00763 342.4344 281.19513 343.1844Q281.38263 343.9344 281.38263 345.21564Q281.38263 346.73126 281.07013 347.65314Q280.77325 348.575 280.14825 349.09064Q279.53888 349.59064 278.58575 349.59064Q277.35138 349.59064 276.63263 348.7Q275.78888 347.6375 275.78888 345.21564ZM276.867 345.21564Q276.867 347.325 277.367 348.02814Q277.867 348.73126 278.58575 348.73126Q279.32013 348.73126 279.8045 348.02814Q280.3045 347.325 280.3045 345.21564Q280.3045 343.09064 279.8045 342.40314Q279.32013 341.7 278.57013 341.7Q277.85138 341.7 277.41388 342.3094Q276.867 343.09064 276.867 345.21564ZM287.14825 347.16876L288.1795 347.3094Q288.00763 348.3719 287.3045 348.98126Q286.60138 349.59064 285.58575 349.59064Q284.3045 349.59064 283.52325 348.7625Q282.75763 347.91876 282.75763 346.35626Q282.75763 345.35626 283.08575 344.60626Q283.4295 343.84064 284.10138 343.46564Q284.78888 343.09064 285.60138 343.09064Q286.60138 343.09064 287.242 343.60626Q287.89825 344.10626 288.08575 345.0594L287.0545 345.21564Q286.91388 344.59064 286.53888 344.27814Q286.16388 343.95 285.63263 343.95Q284.83575 343.95 284.33575 344.52814Q283.83575 345.09064 283.83575 346.325Q283.83575 347.59064 284.32013 348.15314Q284.8045 348.71564 285.57013 348.71564Q286.19513 348.71564 286.60138 348.34064Q287.02325 347.96564 287.14825 347.16876Z" fill-rule="nonzero"/><path fill="#000000" d="M308.46875 342.96564L307.42188 343.04376Q307.28125 342.41876 307.03125 342.1375Q306.59375 341.6844 305.96875 341.6844Q305.46875 341.6844 305.07812 341.96564Q304.59375 342.34064 304.29688 343.04376Q304.01562 343.73126 304.0 345.0125Q304.375 344.4344 304.92188 344.15314Q305.48438 343.8719 306.09375 343.8719Q307.14062 343.8719 307.875 344.65314Q308.625 345.4344 308.625 346.65314Q308.625 347.46564 308.26562 348.16876Q307.92188 348.85626 307.3125 349.23126Q306.70312 349.59064 305.9375 349.59064Q304.60938 349.59064 303.78125 348.6219Q302.95312 347.65314 302.95312 345.4344Q302.95312 342.9344 303.875 341.8094Q304.67188 340.825 306.03125 340.825Q307.04688 340.825 307.6875 341.40314Q308.34375 341.96564 308.46875 342.96564ZM304.17188 346.66876Q304.17188 347.21564 304.39062 347.71564Q304.625 348.2 305.03125 348.46564Q305.45312 348.73126 305.92188 348.73126Q306.57812 348.73126 307.0625 348.2Q307.54688 347.65314 307.54688 346.73126Q307.54688 345.84064 307.0625 345.325Q306.59375 344.8094 305.875 344.8094Q305.15625 344.8094 304.65625 345.325Q304.17188 345.84064 304.17188 346.66876ZM312.59375 348.5125L312.75 349.4344Q312.29688 349.52814 311.95312 349.52814Q311.375 349.52814 311.0625 349.35626Q310.75 349.16876 310.60938 348.8719Q310.48438 348.575 310.48438 347.6219L310.48438 344.04376L309.71875 344.04376L309.71875 343.23126L310.48438 343.23126L310.48438 341.6844L311.53125 341.0594L311.53125 343.23126L312.59375 343.23126L312.59375 344.04376L311.53125 344.04376L311.53125 347.6844Q311.53125 348.1375 311.57812 348.2625Q311.64062 348.3875 311.76562 348.46564Q311.89062 348.54376 312.125 348.54376Q312.3125 348.54376 312.59375 348.5125ZM313.5625 349.45L313.5625 348.2469L314.76562 348.2469L314.76562 349.45Q314.76562 350.10626 314.53125 350.5125Q314.29688 350.9344 313.79688 351.15314L313.5 350.7Q313.82812 350.5594 313.98438 350.2625Q314.14062 349.98126 314.17188 349.45L313.5625 349.45ZM324.54688 348.4344L324.54688 349.45L318.85938 349.45Q318.85938 349.075 318.98438 348.71564Q319.20312 348.1375 319.67188 347.575Q320.15625 347.0125 321.0625 346.27814Q322.46875 345.1219 322.95312 344.45Q323.45312 343.77814 323.45312 343.1844Q323.45312 342.5594 323.0 342.1375Q322.54688 341.7 321.82812 341.7Q321.0625 341.7 320.60938 342.15314Q320.15625 342.60626 320.14062 343.41876L319.0625 343.3094Q319.17188 342.09064 319.89062 341.46564Q320.625 340.825 321.85938 340.825Q323.09375 340.825 323.8125 341.5125Q324.53125 342.2 324.53125 343.21564Q324.53125 343.73126 324.3125 344.23126Q324.10938 344.71564 323.60938 345.27814Q323.125 345.825 322.0 346.77814Q321.04688 347.575 320.76562 347.8719Q320.5 348.15314 320.32812 348.4344L324.54688 348.4344ZM326.0 345.21564Q326.0 343.6844 326.3125 342.7625Q326.625 341.825 327.23438 341.325Q327.85938 340.825 328.79688 340.825Q329.48438 340.825 330.0 341.10626Q330.53125 341.3875 330.875 341.91876Q331.21875 342.4344 331.40625 343.1844Q331.59375 343.9344 331.59375 345.21564Q331.59375 346.73126 331.28125 347.65314Q330.98438 348.575 330.35938 349.09064Q329.75 349.59064 328.79688 349.59064Q327.5625 349.59064 326.84375 348.7Q326.0 347.6375 326.0 345.21564ZM327.07812 345.21564Q327.07812 347.325 327.57812 348.02814Q328.07812 348.73126 328.79688 348.73126Q329.53125 348.73126 330.01562 348.02814Q330.51562 347.325 330.51562 345.21564Q330.51562 343.09064 330.01562 342.40314Q329.53125 341.7 328.78125 341.7Q328.0625 341.7 327.625 342.3094Q327.07812 343.09064 327.07812 345.21564ZM333.0 345.21564Q333.0 343.6844 333.3125 342.7625Q333.625 341.825 334.23438 341.325Q334.85938 340.825 335.79688 340.825Q336.48438 340.825 337.0 341.10626Q337.53125 341.3875 337.875 341.91876Q338.21875 342.4344 338.40625 343.1844Q338.59375 343.9344 338.59375 345.21564Q338.59375 346.73126 338.28125 347.65314Q337.98438 348.575 337.35938 349.09064Q336.75 349.59064 335.79688 349.59064Q334.5625 349.59064 333.84375 348.7Q333.0 347.6375 333.0 345.21564ZM334.07812 345.21564Q334.07812 347.325 334.57812 348.02814Q335.07812 348.73126 335.79688 348.73126Q336.53125 348.73126 337.01562 348.02814Q337.51562 347.325 337.51562 345.21564Q337.51562 343.09064 337.01562 342.40314Q336.53125 341.7 335.78125 341.7Q335.0625 341.7 334.625 342.3094Q334.07812 343.09064 334.07812 345.21564ZM344.35938 347.16876L345.39062 347.3094Q345.21875 348.3719 344.51562 348.98126Q343.8125 349.59064 342.79688 349.59064Q341.51562 349.59064 340.73438 348.7625Q339.96875 347.91876 339.96875 346.35626Q339.96875 345.35626 340.29688 344.60626Q340.64062 343.84064 341.3125 343.46564Q342.0 343.09064 342.8125 343.09064Q343.8125 343.09064 344.45312 343.60626Q345.10938 344.10626 345.29688 345.0594L344.26562 345.21564Q344.125 344.59064 343.75 344.27814Q343.375 343.95 342.84375 343.95Q342.04688 343.95 341.54688 344.52814Q341.04688 345.09064 341.04688 346.325Q341.04688 347.59064 341.53125 348.15314Q342.01562 348.71564 342.78125 348.71564Q343.40625 348.71564 343.8125 348.34064Q344.23438 347.96564 344.35938 347.16876Z" fill-rule="nonzero"/><path fill="#000000" d="M365.67987 342.96564L364.633 343.04376Q364.49237 342.41876 364.24237 342.1375Q363.80487 341.6844 363.17987 341.6844Q362.67987 341.6844 362.28925 341.96564Q361.80487 342.34064 361.508 343.04376Q361.22675 343.73126 361.21112 345.0125Q361.58612 344.4344 362.133 344.15314Q362.6955 343.8719 363.30487 343.8719Q364.35175 343.8719 365.08612 344.65314Q365.83612 345.4344 365.83612 346.65314Q365.83612 347.46564 365.47675 348.16876Q365.133 348.85626 364.52362 349.23126Q363.91425 349.59064 363.14862 349.59064Q361.8205 349.59064 360.99237 348.6219Q360.16425 347.65314 360.16425 345.4344Q360.16425 342.9344 361.08612 341.8094Q361.883 340.825 363.24237 340.825Q364.258 340.825 364.89862 341.40314Q365.55487 341.96564 365.67987 342.96564ZM361.383 346.66876Q361.383 347.21564 361.60175 347.71564Q361.83612 348.2 362.24237 348.46564Q362.66425 348.73126 363.133 348.73126Q363.78925 348.73126 364.27362 348.2Q364.758 347.65314 364.758 346.73126Q364.758 345.84064 364.27362 345.325Q363.80487 344.8094 363.08612 344.8094Q362.36737 344.8094 361.86737 345.325Q361.383 345.84064 361.383 346.66876ZM369.80487 348.5125L369.96112 349.4344Q369.508 349.52814 369.16425 349.52814Q368.58612 349.52814 368.27362 349.35626Q367.96112 349.16876 367.8205 348.8719Q367.6955 348.575 367.6955 347.6219L367.6955 344.04376L366.92987 344.04376L366.92987 343.23126L367.6955 343.23126L367.6955 341.6844L368.74237 341.0594L368.74237 343.23126L369.80487 343.23126L369.80487 344.04376L368.74237 344.04376L368.74237 347.6844Q368.74237 348.1375 368.78925 348.2625Q368.85175 348.3875 368.97675 348.46564Q369.10175 348.54376 369.33612 348.54376Q369.52362 348.54376 369.80487 348.5125ZM370.77362 349.45L370.77362 348.2469L371.97675 348.2469L371.97675 349.45Q371.97675 350.10626 371.74237 350.5125Q371.508 350.9344 371.008 351.15314L370.71112 350.7Q371.03925 350.5594 371.1955 350.2625Q371.35175 349.98126 371.383 349.45L370.77362 349.45ZM379.58612 349.45L379.58612 347.3875L375.86737 347.3875L375.86737 346.41876L379.78925 340.85626L380.64862 340.85626L380.64862 346.41876L381.80487 346.41876L381.80487 347.3875L380.64862 347.3875L380.64862 349.45L379.58612 349.45ZM379.58612 346.41876L379.58612 342.5594L376.89862 346.41876L379.58612 346.41876ZM383.21112 345.21564Q383.21112 343.6844 383.52362 342.7625Q383.83612 341.825 384.4455 341.325Q385.0705 340.825 386.008 340.825Q386.6955 340.825 387.21112 341.10626Q387.74237 341.3875 388.08612 341.91876Q388.42987 342.4344 388.61737 343.1844Q388.80487 343.9344 388.80487 345.21564Q388.80487 346.73126 388.49237 347.65314Q388.1955 348.575 387.5705 349.09064Q386.96112 349.59064 386.008 349.59064Q384.77362 349.59064 384.05487 348.7Q383.21112 347.6375 383.21112 345.21564ZM384.28925 345.21564Q384.28925 347.325 384.78925 348.02814Q385.28925 348.73126 386.008 348.73126Q386.74237 348.73126 387.22675 348.02814Q387.72675 347.325 387.72675 345.21564Q387.72675 343.09064 387.22675 342.40314Q386.74237 341.7 385.99237 341.7Q385.27362 341.7 384.83612 342.3094Q384.28925 343.09064 384.28925 345.21564ZM390.21112 345.21564Q390.21112 343.6844 390.52362 342.7625Q390.83612 341.825 391.4455 341.325Q392.0705 340.825 393.008 340.825Q393.6955 340.825 394.21112 341.10626Q394.74237 341.3875 395.08612 341.91876Q395.42987 342.4344 395.61737 343.1844Q395.80487 343.9344 395.80487 345.21564Q395.80487 346.73126 395.49237 347.65314Q395.1955 348.575 394.5705 349.09064Q393.96112 349.59064 393.008 349.59064Q391.77362 349.59064 391.05487 348.7Q390.21112 347.6375 390.21112 345.21564ZM391.28925 345.21564Q391.28925 347.325 391.78925 348.02814Q392.28925 348.73126 393.008 348.73126Q393.74237 348.73126 394.22675 348.02814Q394.72675 347.325 394.72675 345.21564Q394.72675 343.09064 394.22675 342.40314Q393.74237 341.7 392.99237 341.7Q392.27362 341.7 391.83612 342.3094Q391.28925 343.09064 391.28925 345.21564ZM401.5705 347.16876L402.60175 347.3094Q402.42987 348.3719 401.72675 348.98126Q401.02362 349.59064 400.008 349.59064Q398.72675 349.59064 397.9455 348.7625Q397.17987 347.91876 397.17987 346.35626Q397.17987 345.35626 397.508 344.60626Q397.85175 343.84064 398.52362 343.46564Q399.21112 343.09064 400.02362 343.09064Q401.02362 343.09064 401.66425 343.60626Q402.3205 344.10626 402.508 345.0594L401.47675 345.21564Q401.33612 344.59064 400.96112 344.27814Q400.58612 343.95 400.05487 343.95Q399.258 343.95 398.758 344.52814Q398.258 345.09064 398.258 346.325Q398.258 347.59064 398.74237 348.15314Q399.22675 348.71564 399.99237 348.71564Q400.61737 348.71564 401.02362 348.34064Q401.4455 347.96564 401.5705 347.16876Z" fill-rule="nonzero"/><path fill="#000000" d="M417.89096 349.45L416.8441 349.45L416.8441 342.73126Q416.45346 343.09064 415.82846 343.46564Q415.2191 343.825 414.7347 343.9969L414.7347 342.98126Q415.6097 342.5594 416.26596 341.98126Q416.93784 341.3875 417.2191 340.825L417.89096 340.825L417.89096 349.45ZM426.4691 348.4344L426.4691 349.45L420.7816 349.45Q420.7816 349.075 420.9066 348.71564Q421.12534 348.1375 421.5941 347.575Q422.07846 347.0125 422.9847 346.27814Q424.39096 345.1219 424.87534 344.45Q425.37534 343.77814 425.37534 343.1844Q425.37534 342.5594 424.9222 342.1375Q424.4691 341.7 423.75034 341.7Q422.9847 341.7 422.5316 342.15314Q422.07846 342.60626 422.06284 343.41876L420.9847 343.3094Q421.0941 342.09064 421.81284 341.46564Q422.5472 340.825 423.7816 340.825Q425.01596 340.825 425.7347 341.5125Q426.45346 342.2 426.45346 343.21564Q426.45346 343.73126 426.2347 344.23126Q426.0316 344.71564 425.5316 345.27814Q425.0472 345.825 423.9222 346.77814Q422.9691 347.575 422.68784 347.8719Q422.4222 348.15314 422.25034 348.4344L426.4691 348.4344ZM430.51596 348.5125L430.6722 349.4344Q430.2191 349.52814 429.87534 349.52814Q429.2972 349.52814 428.9847 349.35626Q428.6722 349.16876 428.5316 348.8719Q428.4066 348.575 428.4066 347.6219L428.4066 344.04376L427.64096 344.04376L427.64096 343.23126L428.4066 343.23126L428.4066 341.6844L429.45346 341.0594L429.45346 343.23126L430.51596 343.23126L430.51596 344.04376L429.45346 344.04376L429.45346 347.6844Q429.45346 348.1375 429.50034 348.2625Q429.56284 348.3875 429.68784 348.46564Q429.81284 348.54376 430.0472 348.54376Q430.2347 348.54376 430.51596 348.5125ZM431.4847 349.45L431.4847 348.2469L432.68784 348.2469L432.68784 349.45Q432.68784 350.10626 432.45346 350.5125Q432.2191 350.9344 431.7191 351.15314L431.4222 350.7Q431.75034 350.5594 431.9066 350.2625Q432.06284 349.98126 432.0941 349.45L431.4847 349.45ZM440.89096 349.45L439.8441 349.45L439.8441 342.73126Q439.45346 343.09064 438.82846 343.46564Q438.2191 343.825 437.7347 343.9969L437.7347 342.98126Q438.6097 342.5594 439.26596 341.98126Q439.93784 341.3875 440.2191 340.825L440.89096 340.825L440.89096 349.45ZM443.9222 345.21564Q443.9222 343.6844 444.2347 342.7625Q444.5472 341.825 445.1566 341.325Q445.7816 340.825 446.7191 340.825Q447.4066 340.825 447.9222 341.10626Q448.45346 341.3875 448.7972 341.91876Q449.14096 342.4344 449.32846 343.1844Q449.51596 343.9344 449.51596 345.21564Q449.51596 346.73126 449.20346 347.65314Q448.9066 348.575 448.2816 349.09064Q447.6722 349.59064 446.7191 349.59064Q445.4847 349.59064 444.76596 348.7Q443.9222 347.6375 443.9222 345.21564ZM445.00034 345.21564Q445.00034 347.325 445.50034 348.02814Q446.00034 348.73126 446.7191 348.73126Q447.45346 348.73126 447.93784 348.02814Q448.43784 347.325 448.43784 345.21564Q448.43784 343.09064 447.93784 342.40314Q447.45346 341.7 446.70346 341.7Q445.9847 341.7 445.5472 342.3094Q445.00034 343.09064 445.00034 345.21564ZM450.9222 345.21564Q450.9222 343.6844 451.2347 342.7625Q451.5472 341.825 452.1566 341.325Q452.7816 340.825 453.7191 340.825Q454.4066 340.825 454.9222 341.10626Q455.45346 341.3875 455.7972 341.91876Q456.14096 342.4344 456.32846 343.1844Q456.51596 343.9344 456.51596 345.21564Q456.51596 346.73126 456.20346 347.65314Q455.9066 348.575 455.2816 349.09064Q454.6722 349.59064 453.7191 349.59064Q452.4847 349.59064 451.76596 348.7Q450.9222 347.6375 450.9222 345.21564ZM452.00034 345.21564Q452.00034 347.325 452.50034 348.02814Q453.00034 348.73126 453.7191 348.73126Q454.45346 348.73126 454.93784 348.02814Q455.43784 347.325 455.43784 345.21564Q455.43784 343.09064 454.93784 342.40314Q454.45346 341.7 453.70346 341.7Q452.9847 341.7 452.5472 342.3094Q452.00034 343.09064 452.00034 345.21564ZM462.2816 347.16876L463.31284 347.3094Q463.14096 348.3719 462.43784 348.98126Q461.7347 349.59064 460.7191 349.59064Q459.43784 349.59064 458.6566 348.7625Q457.89096 347.91876 457.89096 346.35626Q457.89096 345.35626 458.2191 344.60626Q458.56284 343.84064 459.2347 343.46564Q459.9222 343.09064 460.7347 343.09064Q461.7347 343.09064 462.37534 343.60626Q463.0316 344.10626 463.2191 345.0594L462.18784 345.21564Q462.0472 344.59064 461.6722 344.27814Q461.2972 343.95 460.76596 343.95Q459.9691 343.95 459.4691 344.52814Q458.9691 345.09064 458.9691 346.325Q458.9691 347.59064 459.45346 348.15314Q459.93784 348.71564 460.70346 348.71564Q461.32846 348.71564 461.7347 348.34064Q462.1566 347.96564 462.2816 347.16876Z" fill-rule="nonzero"/><path fill="#000000" d="M475.10208 349.45L474.0552 349.45L474.0552 342.73126Q473.66458 343.09064 473.03958 343.46564Q472.4302 343.825 471.94583 343.9969L471.94583 342.98126Q472.82083 342.5594 473.47708 341.98126Q474.14896 341.3875 474.4302 340.825L475.10208 340.825L475.10208 349.45ZM483.6802 348.4344L483.6802 349.45L477.9927 349.45Q477.9927 349.075 478.1177 348.71564Q478.33646 348.1375 478.8052 347.575Q479.28958 347.0125 480.19583 346.27814Q481.60208 345.1219 482.08646 344.45Q482.58646 343.77814 482.58646 343.1844Q482.58646 342.5594 482.13333 342.1375Q481.6802 341.7 480.96146 341.7Q480.19583 341.7 479.7427 342.15314Q479.28958 342.60626 479.27396 343.41876L478.19583 343.3094Q478.3052 342.09064 479.02396 341.46564Q479.75833 340.825 480.9927 340.825Q482.22708 340.825 482.94583 341.5125Q483.66458 342.2 483.66458 343.21564Q483.66458 343.73126 483.44583 344.23126Q483.2427 344.71564 482.7427 345.27814Q482.25833 345.825 481.13333 346.77814Q480.1802 347.575 479.89896 347.8719Q479.63333 348.15314 479.46146 348.4344L483.6802 348.4344ZM487.72708 348.5125L487.88333 349.4344Q487.4302 349.52814 487.08646 349.52814Q486.50833 349.52814 486.19583 349.35626Q485.88333 349.16876 485.7427 348.8719Q485.6177 348.575 485.6177 347.6219L485.6177 344.04376L484.85208 344.04376L484.85208 343.23126L485.6177 343.23126L485.6177 341.6844L486.66458 341.0594L486.66458 343.23126L487.72708 343.23126L487.72708 344.04376L486.66458 344.04376L486.66458 347.6844Q486.66458 348.1375 486.71146 348.2625Q486.77396 348.3875 486.89896 348.46564Q487.02396 348.54376 487.25833 348.54376Q487.44583 348.54376 487.72708 348.5125ZM488.69583 349.45L488.69583 348.2469L489.89896 348.2469L489.89896 349.45Q489.89896 350.10626 489.66458 350.5125Q489.4302 350.9344 488.9302 351.15314L488.63333 350.7Q488.96146 350.5594 489.1177 350.2625Q489.27396 349.98126 489.3052 349.45L488.69583 349.45ZM499.6802 348.4344L499.6802 349.45L493.9927 349.45Q493.9927 349.075 494.1177 348.71564Q494.33646 348.1375 494.8052 347.575Q495.28958 347.0125 496.19583 346.27814Q497.60208 345.1219 498.08646 344.45Q498.58646 343.77814 498.58646 343.1844Q498.58646 342.5594 498.13333 342.1375Q497.6802 341.7 496.96146 341.7Q496.19583 341.7 495.7427 342.15314Q495.28958 342.60626 495.27396 343.41876L494.19583 343.3094Q494.3052 342.09064 495.02396 341.46564Q495.75833 340.825 496.9927 340.825Q498.22708 340.825 498.94583 341.5125Q499.66458 342.2 499.66458 343.21564Q499.66458 343.73126 499.44583 344.23126Q499.2427 344.71564 498.7427 345.27814Q498.25833 345.825 497.13333 346.77814Q496.1802 347.575 495.89896 347.8719Q495.63333 348.15314 495.46146 348.4344L499.6802 348.4344ZM501.13333 345.21564Q501.13333 343.6844 501.44583 342.7625Q501.75833 341.825 502.3677 341.325Q502.9927 340.825 503.9302 340.825Q504.6177 340.825 505.13333 341.10626Q505.66458 341.3875 506.00833 341.91876Q506.35208 342.4344 506.53958 343.1844Q506.72708 343.9344 506.72708 345.21564Q506.72708 346.73126 506.41458 347.65314Q506.1177 348.575 505.4927 349.09064Q504.88333 349.59064 503.9302 349.59064Q502.69583 349.59064 501.97708 348.7Q501.13333 347.6375 501.13333 345.21564ZM502.21146 345.21564Q502.21146 347.325 502.71146 348.02814Q503.21146 348.73126 503.9302 348.73126Q504.66458 348.73126 505.14896 348.02814Q505.64896 347.325 505.64896 345.21564Q505.64896 343.09064 505.14896 342.40314Q504.66458 341.7 503.91458 341.7Q503.19583 341.7 502.75833 342.3094Q502.21146 343.09064 502.21146 345.21564ZM508.13333 345.21564Q508.13333 343.6844 508.44583 342.7625Q508.75833 341.825 509.3677 341.325Q509.9927 340.825 510.9302 340.825Q511.6177 340.825 512.1333 341.10626Q512.66455 341.3875 513.0083 341.91876Q513.35205 342.4344 513.53955 343.1844Q513.72705 343.9344 513.72705 345.21564Q513.72705 346.73126 513.41455 347.65314Q513.1177 348.575 512.4927 349.09064Q511.88333 349.59064 510.9302 349.59064Q509.69583 349.59064 508.97708 348.7Q508.13333 347.6375 508.13333 345.21564ZM509.21146 345.21564Q509.21146 347.325 509.71146 348.02814Q510.21146 348.73126 510.9302 348.73126Q511.66458 348.73126 512.1489 348.02814Q512.6489 347.325 512.6489 345.21564Q512.6489 343.09064 512.1489 342.40314Q511.66458 341.7 510.91458 341.7Q510.19583 341.7 509.75833 342.3094Q509.21146 343.09064 509.21146 345.21564ZM519.4927 347.16876L520.5239 347.3094Q520.35205 348.3719 519.6489 348.98126Q518.9458 349.59064 517.9302 349.59064Q516.6489 349.59064 515.8677 348.7625Q515.10205 347.91876 515.10205 346.35626Q515.10205 345.35626 515.4302 344.60626Q515.7739 343.84064 516.4458 343.46564Q517.1333 343.09064 517.9458 343.09064Q518.9458 343.09064 519.5864 343.60626Q520.2427 344.10626 520.4302 345.0594L519.3989 345.21564Q519.2583 344.59064 518.8833 344.27814Q518.5083 343.95 517.97705 343.95Q517.1802 343.95 516.6802 344.52814Q516.1802 345.09064 516.1802 346.325Q516.1802 347.59064 516.66455 348.15314Q517.1489 348.71564 517.91455 348.71564Q518.53955 348.71564 518.9458 348.34064Q519.3677 347.96564 519.4927 347.16876Z" fill-rule="nonzero"/><path fill="#000000" d="M532.3132 349.45L531.2663 349.45L531.2663 342.73126Q530.8757 343.09064 530.2507 343.46564Q529.6413 343.825 529.1569 343.9969L529.1569 342.98126Q530.0319 342.5594 530.6882 341.98126Q531.36005 341.3875 531.6413 340.825L532.3132 340.825L532.3132 349.45ZM540.8913 348.4344L540.8913 349.45L535.2038 349.45Q535.2038 349.075 535.3288 348.71564Q535.54755 348.1375 536.0163 347.575Q536.5007 347.0125 537.4069 346.27814Q538.8132 345.1219 539.29755 344.45Q539.79755 343.77814 539.79755 343.1844Q539.79755 342.5594 539.3444 342.1375Q538.8913 341.7 538.17255 341.7Q537.4069 341.7 536.9538 342.15314Q536.5007 342.60626 536.48505 343.41876L535.4069 343.3094Q535.5163 342.09064 536.23505 341.46564Q536.9694 340.825 538.2038 340.825Q539.4382 340.825 540.1569 341.5125Q540.8757 342.2 540.8757 343.21564Q540.8757 343.73126 540.6569 344.23126Q540.4538 344.71564 539.9538 345.27814Q539.4694 345.825 538.3444 346.77814Q537.3913 347.575 537.11005 347.8719Q536.8444 348.15314 536.67255 348.4344L540.8913 348.4344ZM544.9382 348.5125L545.0944 349.4344Q544.6413 349.52814 544.29755 349.52814Q543.7194 349.52814 543.4069 349.35626Q543.0944 349.16876 542.9538 348.8719Q542.8288 348.575 542.8288 347.6219L542.8288 344.04376L542.0632 344.04376L542.0632 343.23126L542.8288 343.23126L542.8288 341.6844L543.8757 341.0594L543.8757 343.23126L544.9382 343.23126L544.9382 344.04376L543.8757 344.04376L543.8757 347.6844Q543.8757 348.1375 543.92255 348.2625Q543.98505 348.3875 544.11005 348.46564Q544.23505 348.54376 544.4694 348.54376Q544.6569 348.54376 544.9382 348.5125ZM545.9069 349.45L545.9069 348.2469L547.11005 348.2469L547.11005 349.45Q547.11005 350.10626 546.8757 350.5125Q546.6413 350.9344 546.1413 351.15314L545.8444 350.7Q546.17255 350.5594 546.3288 350.2625Q546.48505 349.98126 546.5163 349.45L545.9069 349.45ZM554.7194 349.45L554.7194 347.3875L551.0007 347.3875L551.0007 346.41876L554.92255 340.85626L555.7819 340.85626L555.7819 346.41876L556.9382 346.41876L556.9382 347.3875L555.7819 347.3875L555.7819 349.45L554.7194 349.45ZM554.7194 346.41876L554.7194 342.5594L552.0319 346.41876L554.7194 346.41876ZM558.3444 345.21564Q558.3444 343.6844 558.6569 342.7625Q558.9694 341.825 559.5788 341.325Q560.2038 340.825 561.1413 340.825Q561.8288 340.825 562.3444 341.10626Q562.8757 341.3875 563.2194 341.91876Q563.5632 342.4344 563.7507 343.1844Q563.9382 343.9344 563.9382 345.21564Q563.9382 346.73126 563.6257 347.65314Q563.3288 348.575 562.7038 349.09064Q562.0944 349.59064 561.1413 349.59064Q559.9069 349.59064 559.1882 348.7Q558.3444 347.6375 558.3444 345.21564ZM559.42255 345.21564Q559.42255 347.325 559.92255 348.02814Q560.42255 348.73126 561.1413 348.73126Q561.8757 348.73126 562.36005 348.02814Q562.86005 347.325 562.86005 345.21564Q562.86005 343.09064 562.36005 342.40314Q561.8757 341.7 561.1257 341.7Q560.4069 341.7 559.9694 342.3094Q559.42255 343.09064 559.42255 345.21564ZM565.3444 345.21564Q565.3444 343.6844 565.6569 342.7625Q565.9694 341.825 566.5788 341.325Q567.2038 340.825 568.1413 340.825Q568.8288 340.825 569.3444 341.10626Q569.8757 341.3875 570.2194 341.91876Q570.5632 342.4344 570.7507 343.1844Q570.9382 343.9344 570.9382 345.21564Q570.9382 346.73126 570.6257 347.65314Q570.3288 348.575 569.7038 349.09064Q569.0944 349.59064 568.1413 349.59064Q566.9069 349.59064 566.1882 348.7Q565.3444 347.6375 565.3444 345.21564ZM566.42255 345.21564Q566.42255 347.325 566.92255 348.02814Q567.42255 348.73126 568.1413 348.73126Q568.8757 348.73126 569.36005 348.02814Q569.86005 347.325 569.86005 345.21564Q569.86005 343.09064 569.36005 342.40314Q568.8757 341.7 568.1257 341.7Q567.4069 341.7 566.9694 342.3094Q566.42255 343.09064 566.42255 345.21564ZM576.7038 347.16876L577.73505 347.3094Q577.5632 348.3719 576.86005 348.98126Q576.1569 349.59064 575.1413 349.59064Q573.86005 349.59064 573.0788 348.7625Q572.3132 347.91876 572.3132 346.35626Q572.3132 345.35626 572.6413 344.60626Q572.98505 343.84064 573.6569 343.46564Q574.3444 343.09064 575.1569 343.09064Q576.1569 343.09064 576.79755 343.60626Q577.4538 344.10626 577.6413 345.0594L576.61005 345.21564Q576.4694 344.59064 576.0944 344.27814Q575.7194 343.95 575.1882 343.95Q574.3913 343.95 573.8913 344.52814Q573.3913 345.09064 573.3913 346.325Q573.3913 347.59064 573.8757 348.15314Q574.36005 348.71564 575.1257 348.71564Q575.7507 348.71564 576.1569 348.34064Q576.5788 347.96564 576.7038 347.16876Z" fill-rule="nonzero"/><path stroke="#5891ad" stroke-width="4.0" stroke-linecap="butt" d="M192.5 61.916668L204.5 61.916668" fill-rule="nonzero"/><path fill="#1a1a1a" d="M217.35938 65.15104Q216.76562 65.65104 216.21875 65.854164Q215.6875 66.05729 215.0625 66.05729Q214.03125 66.05729 213.48438 65.55729Q212.9375 65.05729 212.9375 64.27604Q212.9375 63.822914 213.14062 63.447914Q213.34375 63.05729 213.6875 62.83854Q214.03125 62.604164 214.45312 62.49479Q214.75 62.40104 215.39062 62.322914Q216.65625 62.18229 217.26562 61.96354Q217.26562 61.74479 217.26562 61.697914Q217.26562 61.041664 216.96875 60.77604Q216.5625 60.43229 215.76562 60.43229Q215.03125 60.43229 214.67188 60.697914Q214.3125 60.947914 214.14062 61.604164L213.10938 61.46354Q213.25 60.80729 213.57812 60.40104Q213.90625 59.99479 214.51562 59.77604Q215.125 59.55729 215.92188 59.55729Q216.71875 59.55729 217.21875 59.74479Q217.71875 59.93229 217.95312 60.21354Q218.1875 60.49479 218.28125 60.93229Q218.32812 61.197914 218.32812 61.90104L218.32812 63.30729Q218.32812 64.77604 218.39062 65.166664Q218.46875 65.55729 218.67188 65.916664L217.5625 65.916664Q217.40625 65.58854 217.35938 65.15104ZM217.26562 62.791664Q216.6875 63.02604 215.54688 63.197914Q214.89062 63.291664 214.625 63.416664Q214.35938 63.52604 214.20312 63.74479Q214.0625 63.96354 214.0625 64.24479Q214.0625 64.666664 214.375 64.947914Q214.70312 65.229164 215.3125 65.229164Q215.92188 65.229164 216.39062 64.96354Q216.875 64.697914 217.09375 64.229164Q217.26562 63.86979 217.26562 63.18229L217.26562 62.791664ZM219.875 64.05729L220.90625 63.90104Q221.0 64.52604 221.39062 64.854164Q221.79688 65.18229 222.53125 65.18229Q223.25 65.18229 223.59375 64.90104Q223.95312 64.604164 223.95312 64.197914Q223.95312 63.83854 223.64062 63.635414Q223.42188 63.49479 222.5625 63.27604Q221.40625 62.979164 220.95312 62.77604Q220.51562 62.55729 220.28125 62.18229Q220.04688 61.80729 220.04688 61.33854Q220.04688 60.93229 220.23438 60.572914Q220.42188 60.21354 220.75 59.979164Q221.0 59.80729 221.42188 59.68229Q221.84375 59.55729 222.34375 59.55729Q223.0625 59.55729 223.60938 59.77604Q224.17188 59.979164 224.4375 60.33854Q224.70312 60.697914 224.79688 61.291664L223.76562 61.43229Q223.70312 60.96354 223.35938 60.697914Q223.03125 60.416664 222.40625 60.416664Q221.6875 60.416664 221.375 60.666664Q221.0625 60.90104 221.0625 61.229164Q221.0625 61.43229 221.1875 61.58854Q221.32812 61.760414 221.59375 61.86979Q221.75 61.93229 222.53125 62.135414Q223.65625 62.447914 224.09375 62.635414Q224.53125 62.822914 224.78125 63.18229Q225.03125 63.541664 225.03125 64.08854Q225.03125 64.61979 224.71875 65.08854Q224.42188 65.541664 223.84375 65.80729Q223.26562 66.05729 222.53125 66.05729Q221.3125 66.05729 220.67188 65.55729Q220.04688 65.041664 219.875 64.05729ZM226.29688 65.916664L226.29688 59.697914L227.23438 59.697914L227.23438 60.572914Q227.53125 60.104164 228.01562 59.83854Q228.5 59.55729 229.125 59.55729Q229.8125 59.55729 230.25 59.83854Q230.70312 60.11979 230.875 60.635414Q231.625 59.55729 232.79688 59.55729Q233.73438 59.55729 234.21875 60.072914Q234.71875 60.572914 234.71875 61.65104L234.71875 65.916664L233.67188 65.916664L233.67188 61.99479Q233.67188 61.36979 233.5625 61.08854Q233.46875 60.80729 233.20312 60.635414Q232.9375 60.46354 232.5625 60.46354Q231.90625 60.46354 231.46875 60.90104Q231.04688 61.33854 231.04688 62.30729L231.04688 65.916664L229.98438 65.916664L229.98438 61.86979Q229.98438 61.166664 229.71875 60.822914Q229.46875 60.46354 228.89062 60.46354Q228.4375 60.46354 228.0625 60.697914Q227.6875 60.93229 227.51562 61.385414Q227.34375 61.83854 227.34375 62.68229L227.34375 65.916664L226.29688 65.916664Z" fill-rule="nonzero"/><path stroke="#004561" stroke-width="4.0" stroke-linecap="butt" d="M251.5 61.916668L263.5 61.916668" fill-rule="nonzero"/><path fill="#1a1a1a" d="M276.35938 63.635414L277.39062 63.77604Q277.21875 64.83854 276.51562 65.447914Q275.8125 66.05729 274.79688 66.05729Q273.51562 66.05729 272.73438 65.229164Q271.96875 64.385414 271.96875 62.822914Q271.96875 61.822914 272.29688 61.072914Q272.64062 60.30729 273.3125 59.93229Q274.0 59.55729 274.8125 59.55729Q275.8125 59.55729 276.45312 60.072914Q277.10938 60.572914 277.29688 61.52604L276.26562 61.68229Q276.125 61.05729 275.75 60.74479Q275.375 60.416664 274.84375 60.416664Q274.04688 60.416664 273.54688 60.99479Q273.04688 61.55729 273.04688 62.791664Q273.04688 64.05729 273.53125 64.61979Q274.01562 65.18229 274.78125 65.18229Q275.40625 65.18229 275.8125 64.80729Q276.23438 64.43229 276.35938 63.635414Z" fill-rule="nonzero"/><path stroke="#ff6f31" stroke-width="4.0" stroke-linecap="butt" d="M293.5 61.916668L305.5 61.916668" fill-rule="nonzero"/><path fill="#1a1a1a" d="M314.29688 65.916664L314.29688 59.697914L315.23438 59.697914L315.23438 60.572914Q315.92188 59.55729 317.21875 59.55729Q317.78125 59.55729 318.25 59.760414Q318.73438 59.96354 318.96875 60.291664Q319.20312 60.61979 319.29688 61.05729Q319.34375 61.354164 319.34375 62.08854L319.34375 65.916664L318.29688 65.916664L318.29688 62.135414Q318.29688 61.479164 318.17188 61.166664Q318.04688 60.854164 317.73438 60.666664Q317.42188 60.46354 317.0 60.46354Q316.32812 60.46354 315.82812 60.90104Q315.34375 61.322914 315.34375 62.510414L315.34375 65.916664L314.29688 65.916664ZM320.90625 62.80729Q320.90625 61.072914 321.85938 60.24479Q322.65625 59.55729 323.8125 59.55729Q325.09375 59.55729 325.90625 60.40104Q326.73438 61.229164 326.73438 62.71354Q326.73438 63.916664 326.375 64.604164Q326.01562 65.291664 325.3125 65.68229Q324.625 66.05729 323.8125 66.05729Q322.51562 66.05729 321.70312 65.229164Q320.90625 64.385414 320.90625 62.80729ZM321.98438 62.80729Q321.98438 63.99479 322.5 64.58854Q323.03125 65.18229 323.8125 65.18229Q324.60938 65.18229 325.125 64.58854Q325.64062 63.99479 325.64062 62.77604Q325.64062 61.61979 325.10938 61.02604Q324.59375 60.43229 323.8125 60.43229Q323.03125 60.43229 322.5 61.02604Q321.98438 61.604164 321.98438 62.80729ZM332.32812 65.916664L332.32812 65.135414Q331.73438 66.05729 330.59375 66.05729Q329.84375 66.05729 329.21875 65.65104Q328.59375 65.229164 328.25 64.49479Q327.90625 63.760414 327.90625 62.80729Q327.90625 61.885414 328.21875 61.11979Q328.53125 60.354164 329.15625 59.96354Q329.78125 59.55729 330.54688 59.55729Q331.10938 59.55729 331.54688 59.791664Q331.98438 60.02604 332.26562 60.40104L332.26562 57.322914L333.3125 57.322914L333.3125 65.916664L332.32812 65.916664ZM329.0 62.80729Q329.0 64.010414 329.5 64.604164Q330.0 65.18229 330.6875 65.18229Q331.375 65.18229 331.85938 64.61979Q332.34375 64.05729 332.34375 62.90104Q332.34375 61.61979 331.84375 61.02604Q331.35938 60.43229 330.64062 60.43229Q329.9375 60.43229 329.46875 61.010414Q329.0 61.572914 329.0 62.80729ZM339.54688 63.916664L340.64062 64.041664Q340.39062 64.99479 339.6875 65.52604Q338.98438 66.05729 337.90625 66.05729Q336.54688 66.05729 335.73438 65.21354Q334.9375 64.36979 334.9375 62.854164Q334.9375 61.291664 335.75 60.43229Q336.5625 59.55729 337.84375 59.55729Q339.09375 59.55729 339.875 60.40104Q340.67188 61.24479 340.67188 62.791664Q340.67188 62.885414 340.67188 63.072914L336.03125 63.072914Q336.09375 64.104164 336.60938 64.65104Q337.125 65.18229 337.90625 65.18229Q338.48438 65.18229 338.89062 64.885414Q339.3125 64.572914 339.54688 63.916664ZM336.09375 62.21354L339.5625 62.21354Q339.5 61.416664 339.17188 61.02604Q338.65625 60.416664 337.85938 60.416664Q337.125 60.416664 336.625 60.90104Q336.14062 61.385414 336.09375 62.21354Z" fill-rule="nonzero"/><path stroke="#38761d" stroke-width="4.0" stroke-linecap="butt" d="M357.5 61.916668L369.5 61.916668" fill-rule="nonzero"/><path fill="#1a1a1a" d="M378.29688 65.916664L378.29688 59.697914L379.23438 59.697914L379.23438 60.572914Q379.92188 59.55729 381.21875 59.55729Q381.78125 59.55729 382.25 59.760414Q382.73438 59.96354 382.96875 60.291664Q383.20312 60.61979 383.29688 61.05729Q383.34375 61.354164 383.34375 62.08854L383.34375 65.916664L382.29688 65.916664L382.29688 62.135414Q382.29688 61.479164 382.17188 61.166664Q382.04688 60.854164 381.73438 60.666664Q381.42188 60.46354 381.0 60.46354Q380.32812 60.46354 379.82812 60.90104Q379.34375 61.322914 379.34375 62.510414L379.34375 65.916664L378.29688 65.916664ZM385.09375 66.43229L386.125 66.58854Q386.1875 67.05729 386.48438 67.27604Q386.875 67.572914 387.54688 67.572914Q388.28125 67.572914 388.67188 67.27604Q389.07812 66.979164 389.21875 66.46354Q389.3125 66.135414 389.29688 65.104164Q388.60938 65.916664 387.57812 65.916664Q386.29688 65.916664 385.59375 64.99479Q384.89062 64.05729 384.89062 62.77604Q384.89062 61.885414 385.20312 61.135414Q385.53125 60.36979 386.14062 59.96354Q386.75 59.55729 387.57812 59.55729Q388.6875 59.55729 389.40625 60.447914L389.40625 59.697914L390.375 59.697914L390.375 65.072914Q390.375 66.52604 390.07812 67.135414Q389.78125 67.74479 389.14062 68.08854Q388.5 68.447914 387.5625 68.447914Q386.45312 68.447914 385.76562 67.947914Q385.07812 67.447914 385.09375 66.43229ZM385.96875 62.697914Q385.96875 63.916664 386.45312 64.479164Q386.9375 65.041664 387.67188 65.041664Q388.40625 65.041664 388.89062 64.479164Q389.39062 63.916664 389.39062 62.729164Q389.39062 61.58854 388.875 61.010414Q388.375 60.43229 387.65625 60.43229Q386.95312 60.43229 386.45312 61.010414Q385.96875 61.572914 385.96875 62.697914ZM392.29688 58.541664L392.29688 57.322914L393.35938 57.322914L393.35938 58.541664L392.29688 58.541664ZM392.29688 65.916664L392.29688 59.697914L393.35938 59.697914L393.35938 65.916664L392.29688 65.916664ZM395.29688 65.916664L395.29688 59.697914L396.23438 59.697914L396.23438 60.572914Q396.92188 59.55729 398.21875 59.55729Q398.78125 59.55729 399.25 59.760414Q399.73438 59.96354 399.96875 60.291664Q400.20312 60.61979 400.29688 61.05729Q400.34375 61.354164 400.34375 62.08854L400.34375 65.916664L399.29688 65.916664L399.29688 62.135414Q399.29688 61.479164 399.17188 61.166664Q399.04688 60.854164 398.73438 60.666664Q398.42188 60.46354 398.0 60.46354Q397.32812 60.46354 396.82812 60.90104Q396.34375 61.322914 396.34375 62.510414L396.34375 65.916664L395.29688 65.916664ZM401.59375 65.916664L403.85938 62.68229L401.76562 59.697914L403.07812 59.697914L404.03125 61.15104Q404.29688 61.572914 404.46875 61.854164Q404.71875 61.46354 404.9375 61.166664L405.98438 59.697914L407.25 59.697914L405.09375 62.61979L407.40625 65.916664L406.125 65.916664L404.84375 63.979164L404.5 63.46354L402.85938 65.916664L401.59375 65.916664Z" fill-rule="nonzero"/><path fill="#757575" d="M20.128124 37.55L20.128124 23.2375L26.471874 23.2375Q28.378124 23.2375 29.378124 23.628124Q30.378124 24.003124 30.971874 24.9875Q31.565624 25.95625 31.565624 27.14375Q31.565624 28.659374 30.58125 29.70625Q29.596874 30.753124 27.534374 31.034374Q28.284374 31.39375 28.675 31.753124Q29.503124 32.503124 30.253124 33.659374L32.7375 37.55L30.3625 37.55L28.45625 34.565624Q27.628124 33.284374 27.096874 32.596874Q26.565624 31.909374 26.128124 31.64375Q25.70625 31.3625 25.26875 31.253124Q24.940624 31.190624 24.221874 31.190624L22.01875 31.190624L22.01875 37.55L20.128124 37.55ZM22.01875 29.55L26.096874 29.55Q27.39375 29.55 28.1125 29.284374Q28.846874 29.01875 29.221874 28.425Q29.6125 27.83125 29.6125 27.14375Q29.6125 26.128124 28.878124 25.471874Q28.14375 24.815624 26.55 24.815624L22.01875 24.815624L22.01875 29.55ZM40.971874 34.20625L42.784374 34.440624Q42.3625 36.01875 41.190624 36.909374Q40.034374 37.784374 38.221874 37.784374Q35.95625 37.784374 34.6125 36.39375Q33.284374 34.9875 33.284374 32.45625Q33.284374 29.83125 34.628124 28.39375Q35.971874 26.940624 38.128124 26.940624Q40.20625 26.940624 41.51875 28.3625Q42.846874 29.76875 42.846874 32.346874Q42.846874 32.503124 42.83125 32.815624L35.096874 32.815624Q35.190624 34.51875 36.065624 35.425Q36.940624 36.33125 38.2375 36.33125Q39.20625 36.33125 39.878124 35.83125Q40.565624 35.315624 40.971874 34.20625ZM35.190624 31.3625L40.9875 31.3625Q40.878124 30.065624 40.33125 29.409374Q39.4875 28.39375 38.14375 28.39375Q36.940624 28.39375 36.1125 29.20625Q35.284374 30.003124 35.190624 31.3625ZM51.4875 41.51875L51.4875 36.440624Q51.065624 37.01875 50.33125 37.409374Q49.596874 37.784374 48.76875 37.784374Q46.925 37.784374 45.58125 36.315624Q44.253124 34.83125 44.253124 32.26875Q44.253124 30.70625 44.784374 29.471874Q45.33125 28.221874 46.3625 27.58125Q47.39375 26.940624 48.628124 26.940624Q50.55 26.940624 51.659374 28.565624L51.659374 27.175L53.2375 27.175L53.2375 41.51875L51.4875 41.51875ZM46.065624 32.33125Q46.065624 34.33125 46.89375 35.33125Q47.7375 36.33125 48.909374 36.33125Q50.034374 36.33125 50.846874 35.39375Q51.659374 34.440624 51.659374 32.4875Q51.659374 30.425 50.8 29.378124Q49.940624 28.33125 48.8 28.33125Q47.659374 28.33125 46.8625 29.3Q46.065624 30.26875 46.065624 32.33125ZM62.659374 37.55L62.659374 36.01875Q61.45625 37.784374 59.378124 37.784374Q58.45625 37.784374 57.659374 37.440624Q56.8625 37.08125 56.471874 36.55Q56.096874 36.01875 55.940624 35.2375Q55.83125 34.721874 55.83125 33.596874L55.83125 27.175L57.58125 27.175L57.58125 32.925Q57.58125 34.3 57.690624 34.784374Q57.8625 35.471874 58.39375 35.878124Q58.940624 36.26875 59.721874 36.26875Q60.51875 36.26875 61.20625 35.8625Q61.909374 35.45625 62.190624 34.76875Q62.4875 34.065624 62.4875 32.7375L62.4875 27.175L64.2375 27.175L64.2375 37.55L62.659374 37.55ZM73.97188 34.20625L75.78438 34.440624Q75.3625 36.01875 74.19063 36.909374Q73.03438 37.784374 71.22188 37.784374Q68.95625 37.784374 67.6125 36.39375Q66.28438 34.9875 66.28438 32.45625Q66.28438 29.83125 67.62813 28.39375Q68.97188 26.940624 71.12813 26.940624Q73.20625 26.940624 74.51875 28.3625Q75.84688 29.76875 75.84688 32.346874Q75.84688 32.503124 75.83125 32.815624L68.09688 32.815624Q68.19063 34.51875 69.06563 35.425Q69.94063 36.33125 71.2375 36.33125Q72.20625 36.33125 72.87813 35.83125Q73.56563 35.315624 73.97188 34.20625ZM68.19063 31.3625L73.9875 31.3625Q73.87813 30.065624 73.33125 29.409374Q72.4875 28.39375 71.14375 28.39375Q69.94063 28.39375 69.1125 29.20625Q68.28438 30.003124 68.19063 31.3625ZM77.15938 34.45625L78.90938 34.175Q79.05 35.221874 79.72188 35.784374Q80.39375 36.33125 81.59688 36.33125Q82.8 36.33125 83.37813 35.846874Q83.97188 35.346874 83.97188 34.690624Q83.97188 34.096874 83.45625 33.753124Q83.09688 33.51875 81.65938 33.159374Q79.72188 32.659374 78.97188 32.315624Q78.2375 31.95625 77.84688 31.33125Q77.45625 30.690624 77.45625 29.925Q77.45625 29.2375 77.76875 28.64375Q78.09688 28.05 78.64375 27.659374Q79.05 27.3625 79.75313 27.159374Q80.47188 26.940624 81.28438 26.940624Q82.50313 26.940624 83.425 27.3Q84.34688 27.64375 84.78438 28.253124Q85.22188 28.846874 85.39375 29.846874L83.675 30.08125Q83.55 29.284374 82.9875 28.846874Q82.425 28.39375 81.40938 28.39375Q80.19063 28.39375 79.675 28.8Q79.15938 29.190624 79.15938 29.721874Q79.15938 30.065624 79.37813 30.346874Q79.58125 30.628124 80.05 30.815624Q80.31563 30.909374 81.59688 31.253124Q83.47188 31.753124 84.20625 32.08125Q84.94063 32.39375 85.3625 33.003124Q85.78438 33.596874 85.78438 34.503124Q85.78438 35.378124 85.26875 36.159374Q84.75313 36.940624 83.78438 37.3625Q82.81563 37.784374 81.59688 37.784374Q79.58125 37.784374 78.51875 36.940624Q77.45625 36.096874 77.15938 34.45625ZM91.70625 35.971874L91.95625 37.534374Q91.22188 37.690624 90.62813 37.690624Q89.675 37.690624 89.14375 37.39375Q88.62813 37.08125 88.40938 36.596874Q88.19063 36.096874 88.19063 34.51875L88.19063 28.55L86.90938 28.55L86.90938 27.175L88.19063 27.175L88.19063 24.6125L89.94063 23.55L89.94063 27.175L91.70625 27.175L91.70625 28.55L89.94063 28.55L89.94063 34.6125Q89.94063 35.3625 90.03438 35.58125Q90.12813 35.784374 90.33125 35.925Q90.55 36.05 90.94063 36.05Q91.22188 36.05 91.70625 35.971874ZM93.15938 34.45625L94.90938 34.175Q95.05 35.221874 95.72188 35.784374Q96.39375 36.33125 97.59688 36.33125Q98.8 36.33125 99.37813 35.846874Q99.97188 35.346874 99.97188 34.690624Q99.97188 34.096874 99.45625 33.753124Q99.09688 33.51875 97.65938 33.159374Q95.72188 32.659374 94.97188 32.315624Q94.2375 31.95625 93.84688 31.33125Q93.45625 30.690624 93.45625 29.925Q93.45625 29.2375 93.76875 28.64375Q94.09688 28.05 94.64375 27.659374Q95.05 27.3625 95.75313 27.159374Q96.47188 26.940624 97.28438 26.940624Q98.50313 26.940624 99.425 27.3Q100.34688 27.64375 100.78438 28.253124Q101.22188 28.846874 101.39375 29.846874L99.675 30.08125Q99.55 29.284374 98.9875 28.846874Q98.425 28.39375 97.40938 28.39375Q96.19063 28.39375 95.675 28.8Q95.15938 29.190624 95.15938 29.721874Q95.15938 30.065624 95.37813 30.346874Q95.58125 30.628124 96.05 30.815624Q96.31563 30.909374 97.59688 31.253124Q99.47188 31.753124 100.20625 32.08125Q100.94063 32.39375 101.3625 33.003124Q101.78438 33.596874 101.78438 34.503124Q101.78438 35.378124 101.26875 36.159374Q100.75313 36.940624 99.78438 37.3625Q98.81563 37.784374 97.59688 37.784374Q95.58125 37.784374 94.51875 36.940624Q93.45625 36.096874 93.15938 34.45625ZM102.55 37.8L106.70625 22.9875L108.1125 22.9875L103.97188 37.8L102.55 37.8ZM109.15938 34.45625L110.90938 34.175Q111.05 35.221874 111.72188 35.784374Q112.39375 36.33125 113.59688 36.33125Q114.8 36.33125 115.37813 35.846874Q115.97188 35.346874 115.97188 34.690624Q115.97188 34.096874 115.45625 33.753124Q115.09688 33.51875 113.65938 33.159374Q111.72188 32.659374 110.97188 32.315624Q110.2375 31.95625 109.84688 31.33125Q109.45625 30.690624 109.45625 29.925Q109.45625 29.2375 109.76875 28.64375Q110.09688 28.05 110.64375 27.659374Q111.05 27.3625 111.75313 27.159374Q112.47188 26.940624 113.28438 26.940624Q114.50313 26.940624 115.425 27.3Q116.34688 27.64375 116.78438 28.253124Q117.22188 28.846874 117.39375 29.846874L115.675 30.08125Q115.55 29.284374 114.9875 28.846874Q114.425 28.39375 113.40938 28.39375Q112.19063 28.39375 111.675 28.8Q111.15938 29.190624 111.15938 29.721874Q111.15938 30.065624 111.37813 30.346874Q111.58125 30.628124 112.05 30.815624Q112.31563 30.909374 113.59688 31.253124Q115.47188 31.753124 116.20625 32.08125Q116.94063 32.39375 117.3625 33.003124Q117.78438 33.596874 117.78438 34.503124Q117.78438 35.378124 117.26875 36.159374Q116.75313 36.940624 115.78438 37.3625Q114.81563 37.784374 113.59688 37.784374Q111.58125 37.784374 110.51875 36.940624Q109.45625 36.096874 109.15938 34.45625Z" fill-rule="nonzero"/></svg>